<svg width="34" height="39" viewBox="0 0 34 39" fill="none" xmlns="http://www.w3.org/2000/svg">
<g filter="url(#filter0_b_1062_4280)">
<path d="M21.151 36.8049C19.015 38.1608 16.3137 38.2586 14.0853 37.0608L4.23183 31.7645C2.04026 30.5866 0.638698 28.3338 0.55038 25.8473L0.142379 14.3603C0.0541863 11.8773 1.28879 9.5336 3.38641 8.20202L12.849 2.19513C14.985 0.839239 17.6863 0.741389 19.9147 1.9392L29.7681 7.2355C31.9597 8.41348 33.3612 10.6662 33.4496 13.1527L33.8576 24.6397C33.9458 27.1227 32.7112 29.4664 30.6136 30.798L21.151 36.8049Z" fill="#7BDEFF" fill-opacity="0.4"/>
</g>
<path d="M23.0996 17.0229C23.0907 18.2254 22.9838 19.419 22.6899 20.5858C22.0842 22.9641 20.6679 24.6743 18.45 25.7076C18.0224 25.9036 17.577 26.0817 17.1227 26.2153C16.9 26.2777 16.615 26.2955 16.4101 26.2153C15.0651 25.7076 13.8537 24.9861 12.8828 23.8994C11.8496 22.7325 11.3062 21.3519 11.0746 19.8198C10.843 18.3055 10.941 16.7913 11.0122 15.277C11.0568 14.3774 11.6981 13.8073 12.6601 13.7806C13.9072 13.736 15.0473 13.3887 16.0539 12.6404C16.2053 12.5246 16.3567 12.4 16.5081 12.2753C16.9624 11.9011 17.4434 11.9011 17.8621 12.3198C18.4856 12.9344 19.1803 13.4421 20.0176 13.7004C20.5165 13.8608 21.0331 13.9855 21.5587 14.0478C22.6187 14.1814 23.1709 14.7693 23.1442 15.8471C23.1442 16.239 23.1175 16.6399 23.1086 17.0318L23.0996 17.0229ZM22.2534 17.0318C22.2712 16.5775 22.289 16.1233 22.2979 15.669C22.2979 15.2236 22.0664 14.9564 21.621 14.9029C21.4162 14.8762 21.2024 14.8584 20.9975 14.8228C19.599 14.5823 18.3609 14.0122 17.3543 12.9878C17.2029 12.8275 17.1049 12.8275 16.9357 12.97C16.1875 13.647 15.3234 14.128 14.3436 14.3507C13.7646 14.4843 13.1589 14.5466 12.5621 14.609C12.1256 14.6535 11.8673 14.8851 11.8406 15.3305C11.8406 15.4463 11.8317 15.571 11.8228 15.6868C11.7605 17.1476 11.6803 18.6173 11.9653 20.0692C12.1702 21.1025 12.5354 22.0645 13.1678 22.9196C14.0586 24.1132 15.2611 24.8614 16.615 25.3958C16.7041 25.4315 16.8288 25.4226 16.9179 25.3958C17.4167 25.1999 17.9244 25.0217 18.3965 24.7812C20.1423 23.8905 21.2736 22.492 21.808 20.6037C22.1376 19.4368 22.2445 18.2343 22.2534 17.0229V17.0318Z" fill="white" stroke="white" stroke-width="0.645218"/>
<path d="M16.0221 19.448C16.904 18.6196 17.7056 17.8536 18.5162 17.0964C18.8636 16.7758 19.309 16.8203 19.5228 17.1855C19.6831 17.4617 19.6386 17.72 19.4159 17.9337C18.4272 18.869 17.4474 19.7954 16.4497 20.7217C16.1825 20.9711 15.8529 20.9622 15.5946 20.7039C15.2205 20.3298 14.8642 19.9468 14.5168 19.5549C14.2852 19.2876 14.312 18.9225 14.5525 18.6998C14.8019 18.4682 15.1492 18.4682 15.4075 18.7265C15.6213 18.9403 15.7995 19.1897 16.0221 19.4569V19.448Z" fill="white" stroke="white" stroke-width="0.645218"/>
<defs>
<filter id="filter0_b_1062_4280" x="-2.86206" y="-1.89502" width="39.7241" height="42.79" filterUnits="userSpaceOnUse" color-interpolation-filters="sRGB">
<feFlood flood-opacity="0" result="BackgroundImageFix"/>
<feGaussianBlur in="BackgroundImageFix" stdDeviation="1.5"/>
<feComposite in2="SourceAlpha" operator="in" result="effect1_backgroundBlur_1062_4280"/>
<feBlend mode="normal" in="SourceGraphic" in2="effect1_backgroundBlur_1062_4280" result="shape"/>
</filter>
</defs>
</svg>
