<svg width="119" height="12" viewBox="0 0 119 12" fill="none" xmlns="http://www.w3.org/2000/svg">
<path d="M3.63905 1.34003C4.69092 1.46626 5.4735 1.83649 5.98681 2.47602C6.50012 3.11556 6.7021 3.96549 6.58429 5.02576C6.46648 6.08604 6.08777 6.86862 5.43982 7.38192C4.79186 7.89523 3.93354 8.08878 2.86484 7.96255C1.98969 7.86158 1.11453 7.75219 0.230957 7.65121C0.500236 5.4465 0.769533 3.24181 1.03881 1.03711C1.90555 1.1465 2.77231 1.24748 3.63063 1.34846L3.63905 1.34003ZM2.92375 6.85178C3.5717 6.92752 4.0766 6.79289 4.44686 6.44788C4.81712 6.11129 5.03594 5.58114 5.12009 4.86588C5.19583 4.15061 5.10323 3.58681 4.81712 3.17448C4.53942 2.76215 4.07664 2.51812 3.4371 2.44238C3.06685 2.40031 2.68816 2.35821 2.3179 2.30772C2.14119 3.78032 1.96448 5.25297 1.79618 6.71717C2.17485 6.75924 2.5535 6.80971 2.93218 6.85178H2.92375Z" fill="#03313B"/>
<path d="M9.89813 8.81327C9.35116 8.75437 8.88832 8.60292 8.50964 8.35888C8.13097 8.10644 7.84486 7.77826 7.66815 7.36593C7.49143 6.9536 7.43251 6.47393 7.49142 5.92697C7.55032 5.38 7.71021 4.91717 7.97107 4.55533C8.23194 4.19349 8.56855 3.92426 8.98088 3.75596C9.39321 3.58766 9.85605 3.52875 10.3609 3.58765C10.8743 3.63814 11.3118 3.78957 11.6484 4.02519C11.9934 4.26922 12.2375 4.57218 12.3973 4.94244C12.5572 5.31269 12.6161 5.72504 12.5657 6.17103C12.5488 6.30567 12.5404 6.43185 12.5152 6.54966C12.4983 6.66747 12.4731 6.77687 12.4563 6.86943C11.0846 6.73479 9.7214 6.60016 8.34976 6.45711C8.38342 6.13734 8.41707 5.81757 8.45073 5.50622C9.612 5.63244 10.7733 5.75029 11.9345 5.85968C11.6989 5.91859 11.4633 5.97746 11.2361 6.03636C11.2782 5.61562 11.2109 5.27902 11.0426 5.03499C10.8743 4.79096 10.605 4.64789 10.2515 4.60582C9.99068 4.58058 9.76347 4.61424 9.56151 4.71522C9.35955 4.8162 9.19966 4.9761 9.08185 5.21172C8.96405 5.43892 8.87992 5.73343 8.84626 6.09527C8.8126 6.4487 8.8294 6.75163 8.91355 6.98725C8.99769 7.23128 9.13237 7.4164 9.3175 7.55104C9.50263 7.68567 9.72984 7.76986 10.0075 7.7951C10.3105 7.82876 10.5629 7.7951 10.7564 7.69413C10.95 7.60156 11.1099 7.4585 11.2361 7.26496C11.5979 7.44167 11.9598 7.61839 12.3216 7.7951C12.187 8.04755 12.0018 8.25791 11.7578 8.41779C11.5138 8.58609 11.2361 8.69546 10.9163 8.76278C10.605 8.8301 10.2684 8.84697 9.91493 8.8049L9.89813 8.81327Z" fill="#03313B"/>
<path d="M17.325 4.34655C17.2913 4.69156 17.2661 5.02819 17.2324 5.3732C15.9029 5.25539 14.5733 5.13759 13.2437 5.01136C13.2774 4.66635 13.3111 4.32973 13.3447 3.98472C14.6743 4.11094 15.9954 4.23716 17.325 4.34655ZM15.8271 2.66357C15.6757 4.30448 15.5326 5.94542 15.3811 7.59474C15.3643 7.83878 15.4064 8.01546 15.5242 8.14168C15.642 8.25949 15.8103 8.33522 16.0291 8.35205C16.2058 8.36888 16.3657 8.35207 16.4919 8.31841C16.6265 8.27634 16.7443 8.21741 16.8537 8.14168C16.9042 8.45303 16.9547 8.76437 17.0052 9.07572C16.8285 9.18512 16.6097 9.2693 16.3573 9.31979C16.1048 9.37028 15.8355 9.3871 15.5579 9.36185C15.2128 9.32819 14.9099 9.25243 14.6574 9.12621C14.3966 8.99999 14.2115 8.82331 14.0852 8.5877C13.959 8.35208 13.9085 8.04913 13.9422 7.67887C14.0937 6.08846 14.2367 4.49806 14.3882 2.91606C14.8678 2.83191 15.3475 2.74772 15.8187 2.66357H15.8271Z" fill="#03313B"/>
<path d="M20.242 9.76681C19.6951 9.72474 19.2322 9.58173 18.8451 9.33769C18.458 9.09366 18.172 8.77387 17.9868 8.36154C17.8017 7.95762 17.7344 7.478 17.7765 6.92262C17.8269 6.37565 17.9784 5.91282 18.2224 5.54257C18.4749 5.17231 18.803 4.90301 19.2154 4.72629C19.6277 4.54958 20.0821 4.48227 20.587 4.52434C21.1087 4.56642 21.5379 4.70105 21.883 4.93667C22.228 5.17228 22.4804 5.46681 22.6487 5.83707C22.817 6.20732 22.8759 6.61126 22.8422 7.06566C22.8338 7.2003 22.817 7.32653 22.8002 7.44434C22.7833 7.56215 22.7665 7.67155 22.7412 7.76411C21.3696 7.66313 19.998 7.55373 18.6264 7.43592C18.6516 7.11615 18.6768 6.79637 18.7105 6.47661C19.8718 6.57759 21.033 6.67016 22.1943 6.75431C21.9587 6.82163 21.7315 6.88051 21.4958 6.93942C21.5295 6.51867 21.4538 6.18207 21.2771 5.93804C21.1003 5.69401 20.831 5.55938 20.4776 5.52572C20.2168 5.50047 19.9895 5.55098 19.7876 5.65196C19.5856 5.75294 19.4342 5.92122 19.3164 6.15684C19.1985 6.38404 19.1313 6.68697 19.0976 7.04881C19.0724 7.40224 19.0976 7.70517 19.1817 7.94079C19.2659 8.18482 19.4089 8.36998 19.5941 8.4962C19.7792 8.62243 20.0148 8.70654 20.2841 8.72337C20.587 8.74862 20.8395 8.70654 21.033 8.61397C21.2266 8.51299 21.3865 8.36998 21.5043 8.17643C21.8661 8.34473 22.2279 8.51302 22.5982 8.68973C22.472 8.94218 22.2869 9.15256 22.0428 9.32927C21.8072 9.49757 21.5295 9.62379 21.2097 9.6911C20.8984 9.76684 20.5618 9.78368 20.2083 9.75844L20.242 9.76681Z" fill="#03313B"/>
<path d="M23.8378 9.94811C23.964 8.27354 24.0818 6.59058 24.208 4.91602C24.6119 4.94968 25.0243 4.9749 25.4282 5.00014C25.4282 5.32833 25.445 5.66491 25.4535 5.9931C25.6133 5.6565 25.8321 5.39566 26.1098 5.22736C26.3875 5.05906 26.7241 4.98333 27.1196 5.01699C27.2374 5.01699 27.3384 5.04223 27.4394 5.06748C27.5319 5.09272 27.6077 5.12638 27.6666 5.16845C27.5824 5.54712 27.5067 5.9342 27.4225 6.31287C27.3552 6.27921 27.2711 6.25399 27.1785 6.23716C27.0775 6.22033 26.9513 6.2035 26.7914 6.18667C26.5894 6.16984 26.3875 6.21192 26.1856 6.29607C25.992 6.38022 25.8237 6.51485 25.6806 6.70839C25.546 6.90194 25.4619 7.14597 25.445 7.44891C25.3861 8.31564 25.3188 9.19077 25.2599 10.0575C24.7886 10.0238 24.3175 9.99019 23.8378 9.95653V9.94811Z" fill="#03313B"/>
<path d="M28.2217 10.2529C28.3311 8.56994 28.4405 6.89538 28.5499 5.2124C28.9707 5.23765 29.3914 5.26291 29.8122 5.28816C29.8122 5.5911 29.8122 5.89399 29.8122 6.19693C30.0057 5.86875 30.2582 5.63315 30.5611 5.48169C30.8725 5.33022 31.2006 5.26291 31.5625 5.28816C31.9327 5.3134 32.2609 5.41438 32.547 5.59951C32.8331 5.78463 33.0435 6.04549 33.1781 6.38209C33.3044 6.1633 33.4558 5.98658 33.6494 5.85194C33.8429 5.7173 34.0533 5.61634 34.2805 5.54902C34.5077 5.4817 34.7433 5.46485 34.9705 5.47326C35.3071 5.49009 35.6101 5.57427 35.8794 5.71733C36.1486 5.8688 36.359 6.07912 36.5105 6.35682C36.662 6.63451 36.7293 6.97956 36.7124 7.40031C36.6619 8.50266 36.6115 9.60501 36.5525 10.7074C36.0813 10.6821 35.6017 10.6653 35.1304 10.64C35.1809 9.63024 35.2314 8.62046 35.2819 7.60226C35.2987 7.232 35.2314 6.96271 35.0715 6.80283C34.9116 6.64295 34.7097 6.55039 34.4488 6.54197C34.2468 6.53356 34.0533 6.57564 33.8682 6.65979C33.6915 6.75236 33.54 6.89542 33.4306 7.08896C33.3212 7.2825 33.2539 7.52653 33.2371 7.82105C33.1866 8.72145 33.1361 9.63023 33.0856 10.5306C32.6144 10.5054 32.1347 10.4802 31.6635 10.4549C31.7224 9.44513 31.7813 8.43531 31.8402 7.4171C31.8654 7.04685 31.7897 6.77756 31.6298 6.61768C31.4699 6.45779 31.2596 6.36527 30.9987 6.34844C30.822 6.34003 30.6453 6.37369 30.4601 6.45784C30.2834 6.54199 30.1235 6.67663 29.9973 6.87859C29.8711 7.07213 29.7953 7.33299 29.7785 7.66117C29.728 8.55315 29.6691 9.44511 29.6102 10.3287C29.139 10.3034 28.6677 10.2698 28.1881 10.2361L28.2217 10.2529Z" fill="#03313B"/>
<path d="M38.9758 5.02692C38.6813 5.01851 38.4625 4.94282 38.3279 4.80818C38.1932 4.67354 38.1259 4.48837 38.1343 4.24434C38.1427 4.00031 38.2269 3.81521 38.3699 3.6974C38.5214 3.5796 38.7402 3.5291 39.0347 3.53752C39.3293 3.54593 39.5396 3.62168 39.6827 3.75632C39.8173 3.88254 39.8846 4.07608 39.8762 4.32852C39.8678 4.57255 39.7836 4.74923 39.6406 4.86704C39.4891 4.98484 39.2704 5.03534 38.9758 5.02692ZM39.6406 5.78428C39.5733 7.46726 39.4975 9.15023 39.4302 10.8248C38.959 10.808 38.4877 10.7827 38.0081 10.7659C38.0838 9.08291 38.1596 7.39994 38.2353 5.72537C38.7065 5.7422 39.1694 5.76745 39.6406 5.78428Z" fill="#03313B"/>
<path d="M40.9345 10.8873C41.0018 9.20434 41.0607 7.52136 41.128 5.83838C41.5488 5.85521 41.9695 5.87204 42.3903 5.88887C42.3987 6.39376 42.4071 6.89864 42.4155 7.40354C42.3566 7.34463 42.3061 7.29413 42.2472 7.23523C42.3398 6.90705 42.4829 6.64623 42.668 6.43586C42.8531 6.2339 43.0803 6.07398 43.3412 5.98142C43.602 5.88044 43.8882 5.83839 44.1911 5.8468C44.5445 5.85522 44.8643 5.93934 45.1336 6.08239C45.4028 6.22545 45.6216 6.43582 45.7731 6.71351C45.9246 6.9912 46.0003 7.33625 45.9835 7.74858C45.9498 8.85093 45.9245 9.95327 45.8909 11.0556C45.4196 11.0388 44.94 11.0304 44.4687 11.0136C44.5024 10.0374 44.5277 9.06969 44.5614 8.09357C44.5782 7.66441 44.494 7.36146 44.3341 7.19317C44.1658 7.02487 43.947 6.9323 43.6777 6.92388C43.4842 6.92388 43.2991 6.95755 43.114 7.0417C42.9288 7.12585 42.7774 7.26891 42.6596 7.46245C42.5418 7.66441 42.4744 7.92528 42.4576 8.26187C42.424 9.15385 42.3903 10.0458 42.365 10.9378C41.8938 10.921 41.4141 10.9041 40.9429 10.8873H40.9345Z" fill="#03313B"/>
<path d="M50.3793 7.93511C50.3793 7.649 50.3036 7.4218 50.1437 7.2535C49.9838 7.0852 49.7566 7.00106 49.4873 7.00106C49.2349 7.00106 49.0077 7.05152 48.8141 7.17774C48.6206 7.30397 48.4775 7.50597 48.3765 7.80049C47.981 7.66585 47.5771 7.5396 47.1816 7.40496C47.3079 6.96739 47.5771 6.61396 47.9726 6.3531C48.3766 6.09224 48.9067 5.97443 49.5715 5.98284C50.0259 5.99126 50.413 6.06701 50.7496 6.21006C51.0778 6.35311 51.3386 6.56349 51.5237 6.84118C51.7089 7.11887 51.793 7.47229 51.793 7.88462C51.7846 8.56622 51.7678 9.24783 51.7594 9.93786C51.7594 10.1903 51.8772 10.325 52.1212 10.325C52.239 10.325 52.3484 10.3081 52.4494 10.2828C52.4157 10.569 52.382 10.8551 52.3568 11.1412C52.1717 11.2253 51.9529 11.2674 51.6836 11.259C51.4396 11.259 51.2208 11.2085 51.0357 11.1243C50.8422 11.0402 50.6907 10.914 50.5897 10.7457C50.4803 10.5774 50.4298 10.367 50.4382 10.123C50.4382 10.1061 50.4382 10.0977 50.4382 10.0809C50.5224 10.0725 50.6065 10.0557 50.6907 10.0473C50.6486 10.2997 50.5224 10.5185 50.3372 10.6952C50.1437 10.8719 49.9165 10.9981 49.6472 11.0907C49.3779 11.1833 49.1003 11.2169 48.8226 11.2169C48.4691 11.2169 48.1662 11.1496 47.9137 11.0402C47.6613 10.9308 47.4677 10.7709 47.3331 10.569C47.1985 10.367 47.1395 10.1146 47.1479 9.82003C47.1564 9.44136 47.291 9.13846 47.5435 8.90284C47.7959 8.66722 48.1577 8.51571 48.6206 8.43998C49.2685 8.33059 49.9165 8.2128 50.5645 8.09499C50.556 8.3811 50.5476 8.66722 50.5392 8.95333C50.1269 9.02906 49.7061 9.09639 49.2938 9.17212C49.0582 9.2142 48.8815 9.27307 48.7552 9.3488C48.6374 9.42454 48.5701 9.55077 48.5617 9.72748C48.5617 9.89578 48.6206 10.022 48.7468 10.1146C48.873 10.2072 49.0245 10.2492 49.2012 10.2576C49.3442 10.2576 49.4873 10.2492 49.6304 10.2156C49.7734 10.1819 49.8912 10.1314 50.009 10.0641C50.1184 9.98837 50.211 9.89577 50.2699 9.76955C50.3372 9.64332 50.3709 9.48345 50.3709 9.30674C50.3793 8.85233 50.3877 8.39793 50.3962 7.94353L50.3793 7.93511Z" fill="#03313B"/>
<path d="M53.3176 11.2025C53.3428 9.51952 53.3597 7.83654 53.3849 6.15356C53.8057 6.15356 54.2264 6.16199 54.6472 6.17041C54.6724 6.6753 54.6893 7.18019 54.7145 7.68508C54.6556 7.63459 54.5967 7.57568 54.5378 7.5252C54.6219 7.19701 54.7565 6.92772 54.9333 6.71735C55.11 6.50697 55.3288 6.34709 55.5896 6.24611C55.8505 6.13672 56.1282 6.08624 56.4396 6.09465C56.793 6.09465 57.1128 6.17039 57.3905 6.30502C57.6682 6.43966 57.8869 6.65002 58.0468 6.9193C58.2067 7.18857 58.2824 7.53361 58.2824 7.94594C58.2824 9.04829 58.2824 10.1506 58.274 11.2614C57.8028 11.2614 57.3231 11.2614 56.8519 11.2614C56.8519 10.2853 56.8603 9.31754 56.8687 8.34142C56.8687 7.91226 56.7845 7.60932 56.6162 7.44944C56.4479 7.28114 56.2208 7.197 55.9515 7.197C55.7579 7.197 55.5728 7.2391 55.3877 7.33167C55.2026 7.42423 55.0595 7.56725 54.9417 7.76921C54.8239 7.97117 54.765 8.24046 54.765 8.57706C54.7566 9.46904 54.7481 10.361 54.7397 11.253C54.2685 11.253 53.7888 11.2446 53.3176 11.2361V11.2025Z" fill="#03313B"/>
<path d="M63.1505 6.19663C63.1505 6.54164 63.1505 6.88668 63.1505 7.22327C61.8126 7.23169 60.483 7.2317 59.145 7.2317C59.145 6.88668 59.145 6.54165 59.145 6.20505C60.4746 6.20505 61.8041 6.20504 63.1421 6.19663H63.1505ZM61.5012 4.66511C61.5012 6.31443 61.5096 7.96375 61.518 9.61308C61.518 9.85711 61.5854 10.0338 61.7116 10.1432C61.8378 10.2526 62.0146 10.3115 62.2333 10.3115C62.4101 10.3115 62.5699 10.2863 62.6962 10.2358C62.8224 10.1853 62.9402 10.118 63.0411 10.0254C63.1169 10.3284 63.1926 10.6397 63.2768 10.9426C63.1085 11.0689 62.9065 11.1782 62.6541 11.2456C62.4016 11.3213 62.1408 11.3634 61.8631 11.3634C61.5181 11.3634 61.2067 11.3129 60.9458 11.2119C60.6766 11.1109 60.4746 10.9511 60.3231 10.7238C60.1717 10.5051 60.1043 10.2021 60.0959 9.83187C60.0959 8.23304 60.0959 6.64262 60.0959 5.04379C60.5672 4.91757 61.03 4.78296 61.5012 4.65674V4.66511Z" fill="#03313B"/>
<path d="M66.2277 11.3197C65.706 11.3197 65.2179 11.244 64.7887 11.0673C64.3512 10.8906 64.0061 10.6381 63.7285 10.3099C63.9977 10.0407 64.267 9.763 64.5363 9.49372C64.7046 9.73775 64.9234 9.93125 65.2011 10.0827C65.4788 10.2342 65.8069 10.3099 66.1856 10.3015C66.4549 10.3015 66.6737 10.2595 66.8336 10.1753C66.9935 10.0996 67.0776 9.97336 67.0692 9.80507C67.0692 9.69567 67.0271 9.60309 66.9514 9.52736C66.8757 9.45163 66.7242 9.3927 66.497 9.35063C66.194 9.29172 65.8911 9.24128 65.5882 9.18237C64.9907 9.06456 64.5615 8.88784 64.3091 8.64381C64.0566 8.39977 63.9304 8.08 63.922 7.69292C63.922 7.41523 63.9977 7.15437 64.166 6.91034C64.3343 6.66631 64.5784 6.46433 64.915 6.31286C65.2516 6.16139 65.6639 6.07726 66.1688 6.06885C66.6821 6.06885 67.1281 6.13618 67.5152 6.28764C67.9023 6.43911 68.1968 6.66627 68.424 6.97762C68.1463 7.25531 67.8686 7.52462 67.5909 7.80232C67.4395 7.5667 67.2375 7.38998 66.9935 7.27217C66.7494 7.15436 66.4886 7.09544 66.2277 7.09544C66.0342 7.09544 65.8743 7.1207 65.7312 7.16277C65.5966 7.20485 65.4956 7.26376 65.4283 7.33108C65.361 7.3984 65.3273 7.49097 65.3273 7.60037C65.3273 7.70976 65.3778 7.80229 65.4788 7.87802C65.5713 7.95375 65.7481 8.02111 66.0089 8.0716C66.3624 8.13892 66.7158 8.20622 67.0608 8.26512C67.5741 8.35769 67.9359 8.52601 68.1632 8.76163C68.3904 8.99724 68.4997 9.28332 68.5081 9.61991C68.5081 9.93968 68.4324 10.2342 68.2557 10.4867C68.0874 10.7391 67.8266 10.9495 67.49 11.0925C67.1534 11.244 66.7326 11.3197 66.2361 11.3282L66.2277 11.3197Z" fill="#03313B"/>
<path d="M75.0353 5.85644C75.5571 5.83961 76.0115 5.93218 76.4154 6.12572C76.8193 6.31926 77.1307 6.61381 77.3747 6.99248C77.6103 7.37115 77.7365 7.84236 77.7618 8.38933C77.7786 8.9363 77.6861 9.40754 77.4757 9.81145C77.2653 10.2154 76.9624 10.5267 76.5753 10.7455C76.1882 10.9643 75.7254 11.0905 75.2036 11.1074C74.6819 11.1242 74.2191 11.0316 73.8152 10.8381C73.4112 10.6446 73.0915 10.35 72.8559 9.96291C72.6203 9.57583 72.494 9.11303 72.4856 8.56606C72.4688 8.01909 72.5698 7.53944 72.7801 7.14394C72.9905 6.74844 73.2935 6.43711 73.689 6.21832C74.0761 5.99954 74.5304 5.88169 75.0438 5.86486L75.0353 5.85644ZM75.0606 6.88308C74.7997 6.88308 74.5809 6.9588 74.4042 7.07661C74.2275 7.20283 74.0929 7.37956 74.0003 7.61518C73.9077 7.85079 73.8741 8.15373 73.8825 8.50715C73.8909 8.86899 73.9498 9.15509 74.0508 9.39071C74.1518 9.62632 74.3032 9.79461 74.4883 9.904C74.6735 10.0134 74.9007 10.0723 75.1616 10.0639C75.414 10.0639 75.6328 9.98817 75.8095 9.87036C75.9862 9.74414 76.1209 9.56741 76.2135 9.32337C76.306 9.08776 76.3396 8.78482 76.3312 8.4314C76.3228 8.07797 76.2639 7.78346 76.1545 7.54784C76.0536 7.31222 75.9021 7.14394 75.7169 7.03454C75.5318 6.92515 75.3131 6.87466 75.0606 6.87466V6.88308Z" fill="#03313B"/>
<path d="M82.1287 5.69175C82.1455 6.03676 82.1624 6.38174 82.1792 6.71834C80.8917 6.77724 79.6042 6.82773 78.3168 6.87822C78.2999 6.53321 78.2915 6.18823 78.2747 5.85163C79.5622 5.80114 80.8496 5.75065 82.1287 5.69175ZM80.9759 3.42814C81.2115 3.41972 81.4303 3.42813 81.6238 3.47862C81.8174 3.5207 81.9688 3.57961 82.0698 3.64693C82.0193 3.95828 81.9688 4.2612 81.9183 4.57255C81.8426 4.53048 81.75 4.49682 81.6575 4.47158C81.5649 4.44633 81.4471 4.43789 81.3209 4.44631C81.0516 4.45472 80.8497 4.52208 80.6898 4.64831C80.5383 4.77453 80.471 4.97647 80.4794 5.26258C80.4878 5.49819 80.4962 5.72541 80.513 5.96103C80.5383 6.05359 80.5636 6.13775 80.5888 6.23031C80.6561 7.75341 80.715 9.28487 80.7823 10.808C80.3111 10.8248 79.8314 10.85 79.3602 10.8669C79.2845 8.98194 79.2087 7.09704 79.133 5.22051C79.1246 4.93441 79.1582 4.69036 79.2508 4.47158C79.335 4.25279 79.4612 4.06768 79.6295 3.91621C79.7978 3.76475 79.9913 3.65532 80.227 3.57117C80.4626 3.48703 80.715 3.44497 80.9843 3.43656L80.9759 3.42814Z" fill="#03313B"/>
<path d="M87.3237 3.79748C87.45 6.01901 87.5761 8.23211 87.7024 10.4536C87.2227 10.4789 86.7515 10.5042 86.2719 10.5294C86.1541 8.30787 86.0362 6.09472 85.9184 3.87319C86.3896 3.84794 86.8609 3.82273 87.3321 3.79748H87.3237ZM91.203 6.3051C91.2283 6.67536 91.2535 7.05404 91.2787 7.4243C89.7977 7.51686 88.3083 7.60943 86.8272 7.69358C86.8104 7.32333 86.7851 6.94464 86.7683 6.57439C88.2493 6.49024 89.7304 6.40609 91.2114 6.31353L91.203 6.3051ZM91.7079 3.53662C91.8509 5.74974 92.0024 7.97124 92.1455 10.1844C91.6658 10.218 91.1946 10.2433 90.7149 10.2769C90.5719 8.06379 90.4372 5.84229 90.2942 3.62917C90.7654 3.60393 91.2366 3.57028 91.7079 3.53662Z" fill="#03313B"/>
<path d="M96.1358 10.035C95.5888 10.077 95.1092 10.0097 94.6885 9.82458C94.2677 9.64786 93.9395 9.37013 93.6871 8.99146C93.4431 8.61279 93.3 8.15 93.2579 7.60303C93.2243 7.05606 93.3 6.5764 93.4935 6.17249C93.6871 5.76857 93.9732 5.4488 94.3519 5.21318C94.7305 4.97756 95.1681 4.84293 95.6814 4.80086C96.2032 4.7672 96.6491 4.83452 97.0278 5.01123C97.4065 5.18794 97.701 5.44879 97.9198 5.78539C98.1386 6.12198 98.2648 6.5175 98.2985 6.96349C98.3069 7.09813 98.3153 7.22437 98.3153 7.3506C98.3153 7.47682 98.3153 7.57776 98.3153 7.67874C96.9437 7.78813 95.572 7.88915 94.2004 7.98171C94.1751 7.66195 94.1583 7.34217 94.1331 7.0224C95.2943 6.93825 96.4556 6.85411 97.6253 6.76154C97.4065 6.86252 97.1877 6.95506 96.9605 7.05604C96.9268 6.6353 96.809 6.31553 96.5902 6.10516C96.3798 5.89478 96.0938 5.80226 95.7403 5.8275C95.4795 5.84433 95.2607 5.92003 95.084 6.05467C94.9072 6.18931 94.7726 6.37443 94.6968 6.62688C94.6211 6.87091 94.5875 7.17386 94.6211 7.5357C94.6464 7.88912 94.7221 8.18367 94.8484 8.40246C94.9746 8.62966 95.1344 8.78951 95.3364 8.89048C95.5383 8.99146 95.7824 9.03355 96.0601 9.00831C96.3631 8.98306 96.6071 8.90731 96.7838 8.78109C96.9605 8.65486 97.0951 8.48659 97.1793 8.27621C97.5664 8.38561 97.9534 8.50344 98.3405 8.61283C98.248 8.88211 98.1049 9.1177 97.8946 9.32808C97.6842 9.53003 97.4317 9.69835 97.1288 9.81615C96.8258 9.93396 96.5061 10.0097 96.1527 10.035H96.1358Z" fill="#03313B"/>
<path d="M102.385 6.18628C102.36 5.90017 102.259 5.68142 102.074 5.53837C101.889 5.39532 101.662 5.32797 101.392 5.35321C101.14 5.37846 100.921 5.45423 100.744 5.59728C100.559 5.74033 100.441 5.96752 100.374 6.26204C99.9617 6.17789 99.5494 6.08533 99.1455 6.00118C99.2297 5.54677 99.4484 5.1765 99.8187 4.87356C100.189 4.57062 100.702 4.39395 101.367 4.33504C101.821 4.29297 102.217 4.33504 102.562 4.43602C102.907 4.54541 103.185 4.73051 103.403 4.98296C103.614 5.24382 103.74 5.58043 103.782 5.99276C103.841 6.67436 103.908 7.35596 103.967 8.03757C103.993 8.29002 104.127 8.40785 104.371 8.38261C104.489 8.37419 104.598 8.34892 104.699 8.29843C104.699 8.58454 104.699 8.87066 104.699 9.15676C104.531 9.25774 104.304 9.32505 104.043 9.35029C103.799 9.36712 103.58 9.35029 103.378 9.29138C103.176 9.23248 103.016 9.12312 102.89 8.96324C102.764 8.81177 102.688 8.60979 102.671 8.35734C102.671 8.34051 102.671 8.33211 102.671 8.31528C102.756 8.29845 102.831 8.27319 102.915 8.25636C102.899 8.51723 102.806 8.74443 102.629 8.93797C102.461 9.13151 102.242 9.29139 101.99 9.40078C101.729 9.51859 101.46 9.58591 101.182 9.61115C100.828 9.6364 100.526 9.61118 100.256 9.53545C99.9954 9.4513 99.7851 9.31667 99.6336 9.12312C99.4821 8.92958 99.3895 8.69397 99.3643 8.39103C99.3306 8.01236 99.4316 7.70101 99.6588 7.44014C99.886 7.17928 100.223 6.99416 100.677 6.86794C101.308 6.68281 101.948 6.50608 102.579 6.32095C102.604 6.60705 102.621 6.89318 102.646 7.17928C102.242 7.29709 101.838 7.41488 101.434 7.52427C101.207 7.59159 101.03 7.66735 100.921 7.75991C100.803 7.84406 100.761 7.97868 100.77 8.15539C100.786 8.32369 100.854 8.44149 100.988 8.51722C101.123 8.59296 101.283 8.62661 101.46 8.60978C101.603 8.60136 101.746 8.56772 101.88 8.52565C102.015 8.48357 102.133 8.41627 102.234 8.33212C102.335 8.24797 102.411 8.13857 102.469 8.01235C102.52 7.87771 102.537 7.71783 102.52 7.54112C102.478 7.08671 102.444 6.63227 102.402 6.18628H102.385Z" fill="#03313B"/>
<path d="M106.348 1.76221C106.533 3.65556 106.71 5.54891 106.895 7.44226C106.92 7.67788 106.97 7.83777 107.063 7.92192C107.156 8.00607 107.299 8.03972 107.492 8.02289C107.61 8.01448 107.703 7.99765 107.778 7.97241C107.854 7.94716 107.947 7.91351 108.056 7.87143C108.048 8.17437 108.031 8.48574 108.022 8.78868C107.913 8.86441 107.77 8.93172 107.602 8.99063C107.433 9.04112 107.257 9.0832 107.088 9.10003C106.583 9.15052 106.205 9.06638 105.952 8.84759C105.7 8.6288 105.548 8.25854 105.498 7.73682C105.313 5.79297 105.136 3.84914 104.951 1.9053C105.414 1.86322 105.885 1.82112 106.348 1.77063V1.76221Z" fill="#03313B"/>
<path d="M111.713 3.45061C111.747 3.79562 111.789 4.13219 111.822 4.4772C110.493 4.62026 109.163 4.75489 107.834 4.88953C107.8 4.54452 107.766 4.20794 107.733 3.86293C109.062 3.7283 110.383 3.59367 111.713 3.45061ZM109.912 2.0874C110.08 3.72831 110.249 5.36919 110.425 7.0101C110.451 7.25413 110.535 7.42241 110.669 7.51497C110.813 7.61595 110.989 7.64961 111.208 7.62437C111.385 7.60754 111.536 7.56549 111.654 7.49818C111.78 7.43086 111.881 7.35509 111.974 7.25411C112.083 7.54863 112.193 7.84315 112.302 8.14609C112.151 8.28914 111.957 8.41537 111.713 8.51635C111.477 8.61732 111.216 8.67626 110.939 8.70992C110.594 8.74358 110.282 8.72675 110.013 8.65101C109.735 8.57528 109.517 8.44064 109.34 8.23027C109.172 8.02831 109.062 7.73377 109.029 7.37193C108.869 5.78152 108.709 4.19954 108.549 2.60912C109.003 2.43241 109.458 2.26412 109.904 2.0874H109.912Z" fill="#03313B"/>
<path d="M113.288 8.347C113.027 5.94033 112.766 3.53371 112.497 1.12705C112.96 1.07656 113.423 1.02608 113.894 0.975586C114.012 1.99379 114.121 3.01194 114.239 4.03015C114.365 3.69355 114.567 3.42427 114.837 3.23915C115.106 3.05402 115.417 2.93623 115.779 2.89416C116.132 2.85208 116.452 2.88573 116.747 2.98671C117.041 3.08769 117.277 3.2644 117.47 3.51685C117.664 3.7693 117.782 4.09747 117.832 4.5098C117.967 5.60374 118.093 6.70612 118.228 7.80006C117.757 7.85896 117.285 7.90946 116.814 7.96837C116.705 7.00907 116.587 6.04131 116.477 5.08201C116.427 4.64444 116.309 4.35836 116.116 4.2153C115.922 4.07225 115.695 4.01333 115.434 4.04699C115.24 4.07224 115.047 4.13955 114.879 4.24894C114.71 4.35834 114.576 4.52665 114.492 4.73702C114.399 4.95581 114.374 5.23348 114.416 5.56167C114.517 6.44523 114.609 7.32882 114.71 8.21238C114.239 8.26287 113.768 8.31336 113.297 8.37227L113.288 8.347Z" fill="#03313B"/>
</svg>
