<svg width="34" height="39" viewBox="0 0 34 39" fill="none" xmlns="http://www.w3.org/2000/svg">
<g filter="url(#filter0_b_1062_4308)">
<path d="M12.849 36.8049C14.985 38.1608 17.6863 38.2586 19.9147 37.0608L29.7682 31.7645C31.9597 30.5866 33.3613 28.3338 33.4496 25.8473L33.8576 14.3603C33.9458 11.8773 32.7112 9.5336 30.6136 8.20202L21.151 2.19513C19.015 0.839239 16.3137 0.741389 14.0853 1.9392L4.23187 7.2355C2.04032 8.41348 0.63876 10.6662 0.550434 13.1527L0.142395 24.6397C0.0541916 27.1227 1.2888 29.4664 3.38643 30.798L12.849 36.8049Z" fill="#7BDEFF" fill-opacity="0.4"/>
</g>
<path d="M10.9367 18.6678C11.0761 18.6678 11.1832 18.6678 11.2904 18.6571C13.9594 18.5606 16.6176 18.4535 19.2866 18.357C19.994 18.3355 20.262 18.5821 20.2941 19.2788C20.337 20.3935 20.3799 21.519 20.4228 22.6338C20.4442 23.2554 20.1762 23.5448 19.5653 23.5663C17.25 23.652 14.9348 23.7378 12.6195 23.8342C12.5231 23.8342 12.4373 23.8342 12.3087 23.8449C12.3409 23.9307 12.3623 23.9843 12.3944 24.0272C13.327 25.3992 14.6132 26.1602 16.2853 26.1816C16.7034 26.1816 17.1214 26.0315 17.5395 25.9565C17.6788 25.9351 17.8181 25.8922 17.9467 25.9244C20.1012 26.4174 21.7198 25.5921 22.8988 23.8235C24.0779 22.0549 24.4637 20.0827 24.0135 17.9926C23.7456 16.7706 23.1132 15.7523 21.9234 15.2057C21.0981 14.8305 20.2298 14.8091 19.3509 14.9806C18.9114 15.0664 18.4934 15.2057 18.0647 15.3129C17.443 15.4629 16.832 15.3665 16.221 15.27C15.5029 15.1628 14.7954 15.0128 14.0666 15.1414C13.8415 15.1843 13.6807 15.0664 13.6164 14.8306C13.5521 14.6162 13.67 14.3804 13.9272 14.3375C14.3024 14.2732 14.6882 14.2303 15.0634 14.241C15.4921 14.2625 15.9316 14.3482 16.3604 14.4125C16.414 14.4125 16.4569 14.4125 16.5319 14.4125C16.4033 13.6408 16.4676 12.9012 16.7355 12.1831C16.832 11.9258 16.9713 11.6793 17.1107 11.4327C17.25 11.1969 17.4858 11.1433 17.6895 11.2612C17.9039 11.3899 17.9682 11.6257 17.8181 11.8722C17.443 12.4832 17.2822 13.137 17.3679 13.8659C17.4001 13.7801 17.443 13.7051 17.4751 13.6193C17.8395 12.7833 18.2898 11.9901 18.9436 11.3363C19.8976 10.393 21.0338 10.0714 22.3522 10.318C23.3704 10.5109 23.3919 10.8111 23.2418 11.7114C23.0703 12.6975 22.5772 13.5014 21.7733 14.1124C21.7519 14.1231 21.7412 14.1553 21.7198 14.1767C22.0199 14.3053 22.32 14.4232 22.5987 14.5733C23.6599 15.1414 24.2815 16.0846 24.6674 17.1779C25.6643 19.9969 24.6031 23.9736 22.1592 25.8386C20.948 26.7712 19.5867 27.0606 18.0754 26.7819C17.8289 26.739 17.5609 26.814 17.3143 26.8676C15.6851 27.2428 14.2595 26.814 12.9625 25.8279C12.3301 25.3456 11.8264 24.7453 11.4298 24.0486C11.3547 23.9093 11.269 23.8664 11.1082 23.8664C9.70406 23.9093 8.66432 22.9339 8.61073 21.5404C8.55713 20.1899 8.50356 18.8286 8.46068 17.478C8.41781 16.1918 9.32888 15.2164 10.6151 15.1628C11.0653 15.1414 11.5262 15.1307 11.9764 15.1092C12.2122 15.1092 12.3945 15.1843 12.4802 15.4093C12.5445 15.5701 12.4802 15.6988 12.3516 15.8274C11.6441 16.5348 11.1832 17.3816 11.0117 18.3784C11.001 18.4535 10.9903 18.5285 10.9796 18.6464L10.9367 18.6678ZM19.5545 22.7195L19.4259 19.2145L18.129 19.2681C18.1504 19.7183 18.1719 20.147 18.1719 20.5758C18.1719 20.908 17.8824 21.1224 17.593 20.9831C17.4001 20.8973 17.3465 20.7258 17.3358 20.5329C17.3251 20.1256 17.3036 19.7183 17.2929 19.3002L15.9316 19.3538C15.9316 19.6218 15.9852 19.879 15.9531 20.1256C15.9316 20.2649 15.8245 20.4364 15.6958 20.5007C15.5994 20.5543 15.385 20.5222 15.2992 20.4471C15.192 20.3614 15.1384 20.1792 15.117 20.0291C15.0849 19.8147 15.0956 19.6004 15.0849 19.3753L13.7343 19.4289C13.7557 19.8683 13.7664 20.2863 13.7772 20.7044C13.7772 21.0152 13.595 21.1974 13.3163 21.176C13.0912 21.1546 12.9518 20.9938 12.9304 20.7258C12.9089 20.2971 12.8982 19.879 12.8768 19.461L11.5262 19.5146C11.5262 19.7076 11.5476 19.8791 11.5476 20.0506C11.5476 20.1792 11.5477 20.3185 11.5155 20.4364C11.4619 20.6401 11.3011 20.7365 11.0975 20.7151C10.8724 20.6937 10.7438 20.5329 10.7223 20.3078C10.7009 20.0505 10.7009 19.7933 10.6902 19.6004C10.2185 19.4503 9.78979 19.3324 9.38248 19.2038C9.41463 20.0827 9.4468 20.9938 9.48967 21.9049C9.48967 21.9263 9.5111 21.9585 9.5111 21.9799C9.73619 22.6981 10.315 23.0732 11.1511 23.041C13.8736 22.9339 16.6069 22.8374 19.3295 22.7302C19.4045 22.7302 19.4795 22.7302 19.576 22.7302L19.5545 22.7195ZM22.4379 11.2505C21.441 10.9504 20.5407 11.079 19.7475 11.7436C19.158 12.2366 18.7614 12.869 18.4291 13.555C18.3005 13.8337 18.1826 14.1124 18.0539 14.3804C18.5899 14.2839 19.0937 14.166 19.5974 14.1017C20.0583 14.0374 20.5085 13.9623 20.9051 13.7051C21.7948 13.1263 22.32 12.3331 22.4272 11.2612L22.4379 11.2505ZM10.0578 18.5392C10.1757 18.1105 10.2721 17.6603 10.4222 17.2423C10.583 16.8242 10.7973 16.4276 10.9903 16.0203C10.0256 15.9774 9.41463 16.374 9.27528 17.1243C9.16809 17.7353 9.5111 18.357 10.047 18.5392H10.0578Z" fill="white" stroke="white" stroke-width="0.517613"/>
<defs>
<filter id="filter0_b_1062_4308" x="-2.86203" y="-1.89502" width="39.7241" height="42.79" filterUnits="userSpaceOnUse" color-interpolation-filters="sRGB">
<feFlood flood-opacity="0" result="BackgroundImageFix"/>
<feGaussianBlur in="BackgroundImageFix" stdDeviation="1.5"/>
<feComposite in2="SourceAlpha" operator="in" result="effect1_backgroundBlur_1062_4308"/>
<feBlend mode="normal" in="SourceGraphic" in2="effect1_backgroundBlur_1062_4308" result="shape"/>
</filter>
</defs>
</svg>
