<svg width="34" height="39" viewBox="0 0 34 39" fill="none" xmlns="http://www.w3.org/2000/svg">
<g filter="url(#filter0_b_1062_4301)">
<path d="M12.849 36.8049C14.985 38.1608 17.6863 38.2586 19.9147 37.0608L29.7682 31.7645C31.9597 30.5866 33.3613 28.3338 33.4496 25.8473L33.8576 14.3603C33.9458 11.8773 32.7112 9.5336 30.6136 8.20202L21.151 2.19513C19.015 0.839239 16.3137 0.741389 14.0853 1.9392L4.23187 7.2355C2.04032 8.41348 0.63876 10.6662 0.550434 13.1527L0.142395 24.6397C0.0541916 27.1227 1.2888 29.4664 3.38643 30.798L12.849 36.8049Z" fill="#7BDEFF" fill-opacity="0.4"/>
</g>
<path d="M11.8145 18.5155C12.6345 18.4862 13.4544 18.4569 14.2744 18.4178C14.6746 18.4081 14.7332 18.4569 14.7918 18.8474C14.8503 19.2183 14.9089 19.5892 14.9577 19.9602C14.9968 20.2725 15.1237 20.5068 15.436 20.6142C15.7484 20.7118 15.9925 20.6044 16.2072 20.3799C17.3981 19.15 18.5988 17.9298 19.7799 16.69C20.4828 15.9482 21.3125 15.4601 22.3082 15.2356C23.3917 14.9916 24.485 14.728 25.5685 14.484C26.0468 14.3766 26.1347 14.4547 26.1542 14.9232C26.1542 15.0892 26.164 15.2551 26.1737 15.4308C26.1933 15.8701 26.1738 15.8994 25.754 16.0458C24.7095 16.4168 23.6748 16.7779 22.6303 17.1586C21.8884 17.4222 21.3027 17.9005 20.8537 18.535C19.5066 20.3994 18.1888 22.2736 16.8222 24.1186C15.6703 25.6804 14.0792 26.2856 12.1952 25.8756C10.3991 25.4754 9.27651 24.2943 8.81771 22.5079C8.60296 21.7075 8.75914 20.8973 8.77866 20.0871C8.77866 19.7454 8.8177 19.394 8.83723 19.0523C8.85675 18.7009 8.92509 18.6131 9.27651 18.6033C10.116 18.5643 10.9555 18.535 11.795 18.5057L11.8145 18.5155ZM9.41315 19.1988C9.38387 19.6771 9.33507 20.1359 9.33507 20.5946C9.33507 21.1803 9.27651 21.7953 9.40341 22.3615C9.75483 23.9819 10.7993 25.0166 12.4197 25.3485C14.0109 25.6706 15.3579 25.1435 16.3341 23.8355C17.4664 22.3224 18.55 20.7801 19.653 19.2476C19.6921 19.1988 19.7116 19.1304 19.7506 19.0621C19.4871 18.8376 19.2333 18.6131 18.9697 18.3886C18.8721 18.4862 18.794 18.5545 18.7257 18.6326C18.0131 19.3647 17.3005 20.0968 16.5879 20.8192C16.2267 21.1901 15.7875 21.317 15.2896 21.1608C14.7625 21.0046 14.4892 20.6239 14.4013 20.0773C14.3525 19.7161 14.2842 19.3647 14.2354 19.0035L9.42292 19.189L9.41315 19.1988ZM20.1021 18.6033C20.1802 18.4959 20.2387 18.4179 20.2973 18.33C20.8439 17.5393 21.5663 16.9439 22.4741 16.612C23.421 16.2703 24.3679 15.9287 25.3147 15.6065C25.588 15.5187 25.6466 15.3723 25.549 15.1185C25.4807 15.1185 25.4123 15.1282 25.344 15.1477C24.4264 15.3625 23.5088 15.6163 22.5815 15.7822C21.1758 16.036 20.2778 16.9829 19.3797 17.9883C19.6238 18.1933 19.858 18.3886 20.1021 18.6033Z" fill="white" stroke="white" stroke-width="0.707085"/>
<defs>
<filter id="filter0_b_1062_4301" x="-2.86203" y="-1.89502" width="39.7241" height="42.79" filterUnits="userSpaceOnUse" color-interpolation-filters="sRGB">
<feFlood flood-opacity="0" result="BackgroundImageFix"/>
<feGaussianBlur in="BackgroundImageFix" stdDeviation="1.5"/>
<feComposite in2="SourceAlpha" operator="in" result="effect1_backgroundBlur_1062_4301"/>
<feBlend mode="normal" in="SourceGraphic" in2="effect1_backgroundBlur_1062_4301" result="shape"/>
</filter>
</defs>
</svg>
