<svg width="34" height="39" viewBox="0 0 34 39" fill="none" xmlns="http://www.w3.org/2000/svg">
<g filter="url(#filter0_b_1062_4274)">
<path d="M21.151 36.8049C19.015 38.1608 16.3137 38.2586 14.0853 37.0608L4.23183 31.7645C2.04026 30.5866 0.638698 28.3338 0.55038 25.8473L0.142379 14.3603C0.0541863 11.8773 1.28879 9.5336 3.38641 8.20202L12.849 2.19513C14.985 0.839239 17.6863 0.741389 19.9147 1.9392L29.7681 7.2355C31.9597 8.41348 33.3612 10.6662 33.4496 13.1527L33.8576 24.6397C33.9458 27.1227 32.7112 29.4664 30.6136 30.798L21.151 36.8049Z" fill="#7BDEFF" fill-opacity="0.4"/>
</g>
<path d="M10.4163 19.2385C10.3982 19.4195 10.3982 19.5372 10.3801 19.6548C10.2896 20.4243 10.4525 21.1665 10.6335 21.9179C10.7603 22.4519 10.8598 22.986 10.9775 23.5291C11.0137 23.7192 11.0681 23.9093 11.1043 24.0994C11.1314 24.2714 11.068 24.3891 10.9141 24.4887C10.3258 24.8779 9.50203 24.7874 8.9589 24.4253C8.79596 24.3167 8.75066 24.1718 8.80498 23.9998C8.94981 23.4839 9.11275 22.977 9.25758 22.4701C9.40242 21.9631 9.52013 21.4562 9.68306 20.9584C9.89126 20.3338 9.78263 19.6911 9.846 19.0665C9.846 19.0031 9.77356 18.8945 9.71019 18.8583C9.29379 18.6138 8.87739 18.3875 8.46099 18.1522C7.98123 17.8716 7.98123 17.3918 8.47005 17.1293C8.8955 16.8939 9.34812 16.7039 9.78263 16.4957C10.9051 15.9706 12.0185 15.4456 13.141 14.9206C14.3268 14.3684 15.5217 13.8162 16.6985 13.255C17.0787 13.074 17.4588 12.8929 17.8662 13.0015C18.1921 13.083 18.5179 13.2279 18.8167 13.3908C20.1926 14.1331 21.5685 14.8934 22.9444 15.6448C24.1755 16.3237 25.3976 17.0116 26.6196 17.6906C26.8278 17.8082 27.0089 17.9712 26.9998 18.2156C26.9908 18.4781 26.8097 18.641 26.5653 18.7587C25.5877 19.2113 24.61 19.6729 23.6324 20.1346C23.4876 20.207 23.3247 20.2613 23.1979 20.3609C23.1255 20.4152 23.0712 20.542 23.0712 20.6325C23.044 21.2209 23.0169 21.8093 23.0078 22.4067C23.0078 22.9679 22.691 23.3753 22.3108 23.7102C21.5686 24.371 20.6543 24.7059 19.6947 24.9232C18.4456 25.2128 17.1873 25.24 15.929 25.0137C14.8609 24.8236 13.847 24.4887 12.9509 23.846C12.4621 23.4929 12.0275 23.0856 11.8646 22.4701C11.8375 22.3614 11.8103 22.2438 11.8103 22.1261C11.8194 21.5105 11.8375 20.895 11.8646 20.2885C11.8646 20.1256 11.8375 20.0169 11.6746 19.9355C11.2672 19.7363 10.878 19.51 10.4253 19.2566L10.4163 19.2385ZM8.78691 17.591C8.78691 17.591 8.78691 17.6453 8.78691 17.6634C9.17615 17.8716 9.56538 18.0979 9.96368 18.297C10.0995 18.3694 10.2805 18.4147 10.4253 18.3966C11.0409 18.3151 11.6474 18.2065 12.2629 18.1069C12.9509 17.9893 13.6389 17.8625 14.3268 17.7539C15.0148 17.6453 15.7118 17.5547 16.3997 17.4371C16.5627 17.4099 16.7256 17.3285 16.8614 17.2379C17.2597 16.9573 17.8481 16.9664 18.2192 17.2651C18.4546 17.4552 18.4727 17.763 18.2554 17.9621C18.011 18.1884 17.4679 18.2608 17.1602 18.1341C16.9882 18.0617 16.8071 17.9802 16.6351 17.9893C16.264 18.0164 15.8929 18.0979 15.5217 18.1522C15.2773 18.1884 15.0419 18.2246 14.7975 18.2699C14.1186 18.3876 13.4397 18.5052 12.7608 18.6139C12.281 18.6953 11.8013 18.7587 11.3124 18.8311C11.24 18.8402 11.1676 18.8945 11.0952 18.9216C11.1224 18.9669 11.1314 18.985 11.1404 18.994C12.978 20.0079 14.8247 21.0127 16.6622 22.0265C17.0605 22.2437 17.4408 22.3886 17.8843 22.1804C19.1154 21.6011 20.3465 21.0127 21.5776 20.4424C22.854 19.8449 24.1303 19.2475 25.4067 18.6501C25.6963 18.5143 25.986 18.3604 26.3209 18.1975C26.1942 18.116 26.1218 18.0707 26.0403 18.0255C25.633 17.7992 25.2166 17.5729 24.8002 17.3466C23.8859 16.8397 22.9807 16.3418 22.0664 15.8349C20.8353 15.1559 19.6133 14.477 18.3822 13.8072C18.002 13.599 17.6308 13.427 17.1873 13.6352C16.0105 14.1964 14.8156 14.7486 13.6389 15.3098C12.3806 15.8982 11.1314 16.4957 9.88219 17.0841C9.51105 17.256 9.149 17.428 8.78691 17.6091V17.591ZM22.4738 20.6596C22.0755 20.8497 21.7406 21.0036 21.4056 21.1575C20.3465 21.6554 19.2783 22.1623 18.2192 22.6602C17.7214 22.8955 17.2145 22.9589 16.7075 22.6782C15.5851 22.0627 14.4716 21.4472 13.3492 20.8316C13.0686 20.6777 12.7789 20.5238 12.4802 20.3609C12.453 20.4424 12.4349 20.4786 12.4349 20.5148C12.4168 21.067 12.3987 21.6192 12.3897 22.1713C12.3897 22.2347 12.4168 22.3071 12.4349 22.3705C12.5978 22.7507 12.8604 23.0403 13.1953 23.2847C14.2273 24.0451 15.413 24.3529 16.6622 24.5158C17.667 24.6425 18.6719 24.552 19.6586 24.3167C20.3827 24.1447 21.0707 23.8912 21.6772 23.4567C22.1569 23.1128 22.4828 22.6964 22.4375 22.0627C22.4194 21.7459 22.4557 21.42 22.4647 21.0941C22.4647 20.9674 22.4647 20.8497 22.4828 20.6596H22.4738ZM10.0632 21.9993C10.0632 21.9993 10.027 21.9993 10.0089 21.9993C9.97272 22.0627 9.92746 22.1351 9.90031 22.2075C9.80073 22.5515 9.70115 22.8955 9.61063 23.2485C9.55632 23.4567 9.50201 23.674 9.4477 23.8822C9.42054 23.9999 9.45677 24.0813 9.5835 24.1085C9.67403 24.1266 9.76454 24.1809 9.85506 24.1718C10.0452 24.1537 10.2533 24.1447 10.4163 24.0632C10.4615 24.0451 10.4072 23.8007 10.3891 23.6559C10.3891 23.6106 10.3801 23.5653 10.371 23.5201C10.2624 23.0132 10.1538 22.5153 10.0542 22.0084L10.0632 21.9993Z" fill="white" stroke="white" stroke-width="0.6557"/>
<defs>
<filter id="filter0_b_1062_4274" x="-2.86206" y="-1.89502" width="39.7241" height="42.79" filterUnits="userSpaceOnUse" color-interpolation-filters="sRGB">
<feFlood flood-opacity="0" result="BackgroundImageFix"/>
<feGaussianBlur in="BackgroundImageFix" stdDeviation="1.5"/>
<feComposite in2="SourceAlpha" operator="in" result="effect1_backgroundBlur_1062_4274"/>
<feBlend mode="normal" in="SourceGraphic" in2="effect1_backgroundBlur_1062_4274" result="shape"/>
</filter>
</defs>
</svg>
