<svg width="34" height="39" viewBox="0 0 34 39" fill="none" xmlns="http://www.w3.org/2000/svg">
<g filter="url(#filter0_b_1062_4254)">
<path d="M21.151 36.8049C19.015 38.1608 16.3137 38.2586 14.0853 37.0608L4.23183 31.7645C2.04026 30.5866 0.638698 28.3338 0.55038 25.8473L0.142379 14.3603C0.0541863 11.8773 1.28879 9.5336 3.38641 8.20202L12.849 2.19513C14.985 0.839239 17.6863 0.741389 19.9147 1.9392L29.7681 7.2355C31.9597 8.41348 33.3612 10.6662 33.4496 13.1527L33.8576 24.6397C33.9458 27.1227 32.7112 29.4664 30.6136 30.798L21.151 36.8049Z" fill="#7BDEFF" fill-opacity="0.4"/>
</g>
<path d="M12.3769 17.1899C11.0255 16.077 11.0703 14.3035 12.0473 13.2767C13.0602 12.211 14.7165 12.1483 15.7819 13.1518C16.8375 14.1463 16.9913 15.9581 15.6551 17.1317C15.9931 17.3607 16.3222 17.5994 16.6599 17.8191C16.6985 17.8455 16.7721 17.8142 16.8368 17.7926C17.5304 17.575 18.1991 17.649 18.7982 18.0635C18.9723 18.1871 19.0961 18.2286 19.2588 18.0903C19.3039 18.0509 19.3592 18.0297 19.4418 17.9886C18.6831 17.3561 18.3203 16.5564 18.4097 15.5964C18.474 14.9188 18.777 14.3431 19.292 13.8989C20.3663 12.9524 21.9913 13.0316 22.9644 14.0673C23.9272 15.0846 24.0025 16.8154 22.6927 17.9503C22.7505 17.9853 22.7985 18.0113 22.8465 18.0374C24.267 18.8004 25.0211 19.9768 25.0631 21.5872C25.0908 22.439 25.0815 23.3018 25.0912 24.1731C20.0977 24.2309 15.1228 24.288 10.1105 24.3467C10.1068 24.2625 10.1036 24.1877 10.0999 24.1035C10.0917 23.054 10.0739 21.9956 10.0657 20.9461C10.0596 19.2966 10.784 18.0653 12.2305 17.2713C12.2671 17.2509 12.3033 17.2212 12.3676 17.1903L12.3769 17.1899ZM11.0001 23.4644L11.2714 23.4526C12.3494 23.4526 13.4265 23.4338 14.5041 23.4244C14.954 23.4236 14.9633 23.4232 15.0951 23.0051C15.2944 22.4152 15.6589 21.9588 16.1869 21.5984C15.7 21.179 15.4152 20.6665 15.3599 20.0409C15.3041 19.4059 15.5237 18.8527 15.9431 18.3658C15.2837 17.8602 14.5535 17.667 13.7404 17.7211C12.3382 17.8102 11.0175 19.1237 10.9752 20.5222C10.9517 21.4887 10.9936 22.4523 10.9997 23.455L11.0001 23.4644ZM18.97 21.5805C19.568 21.9669 19.9654 22.4839 20.1444 23.151C20.1891 23.3177 20.2571 23.371 20.4255 23.3637C21.6056 23.3405 22.7958 23.3356 23.9762 23.3217C24.0417 23.3189 24.1072 23.316 24.1914 23.3124C24.1841 22.7128 24.1869 22.1315 24.1706 21.5417C24.1352 20.2965 23.5332 19.3854 22.441 18.8424C21.4826 18.3592 20.5014 18.43 19.5488 18.9401C19.9491 19.9537 19.7433 20.825 18.9704 21.5898L18.97 21.5805ZM15.7335 15.0567C15.7286 14.0821 14.9261 13.3015 13.9515 13.3064C12.9866 13.3203 12.2056 14.1135 12.2194 15.0784C12.2239 16.0436 13.0176 16.8339 13.9829 16.8294C14.9575 16.8245 15.7478 16.0309 15.7429 15.0563L15.7335 15.0567ZM21.0916 14.1113C20.1523 14.0678 19.3136 14.826 19.2786 15.7461C19.2379 16.7508 19.9771 17.581 20.9542 17.6323C21.8934 17.6758 22.7415 16.9171 22.7948 15.9868C22.8542 14.9813 22.1154 14.1605 21.0916 14.1113ZM17.5263 18.5594C16.7957 18.5724 16.2218 19.1692 16.2348 19.8997C16.2479 20.6303 16.8353 21.2046 17.5752 21.1912C18.3058 21.1782 18.8797 20.5814 18.8667 19.8509C18.8532 19.1109 18.2662 18.5459 17.5263 18.5594ZM15.9184 23.4004L19.2629 23.358C19.1579 22.669 18.3822 22.0747 17.5947 22.0714C16.7889 22.0784 16.0087 22.6747 15.9087 23.3914L15.9184 23.4004Z" fill="white" stroke="white" stroke-width="0.4"/>
<defs>
<filter id="filter0_b_1062_4254" x="-2.86206" y="-1.89502" width="39.7241" height="42.79" filterUnits="userSpaceOnUse" color-interpolation-filters="sRGB">
<feFlood flood-opacity="0" result="BackgroundImageFix"/>
<feGaussianBlur in="BackgroundImageFix" stdDeviation="1.5"/>
<feComposite in2="SourceAlpha" operator="in" result="effect1_backgroundBlur_1062_4254"/>
<feBlend mode="normal" in="SourceGraphic" in2="effect1_backgroundBlur_1062_4254" result="shape"/>
</filter>
</defs>
</svg>
