<svg width="34" height="39" viewBox="0 0 34 39" fill="none" xmlns="http://www.w3.org/2000/svg">
<g filter="url(#filter0_b_1062_4260)">
<path d="M21.151 36.8049C19.015 38.1608 16.3137 38.2586 14.0853 37.0608L4.23183 31.7645C2.04026 30.5866 0.638698 28.3338 0.55038 25.8473L0.142379 14.3603C0.0541863 11.8773 1.28879 9.5336 3.38641 8.20202L12.849 2.19513C14.985 0.839239 17.6863 0.741389 19.9147 1.9392L29.7681 7.2355C31.9597 8.41348 33.3612 10.6662 33.4496 13.1527L33.8576 24.6397C33.9458 27.1227 32.7112 29.4664 30.6136 30.798L21.151 36.8049Z" fill="#7BDEFF" fill-opacity="0.4"/>
</g>
<path d="M21.6964 16.7781C21.6894 16.573 21.7012 16.3941 21.6951 16.2158C21.6836 15.8769 21.462 15.6613 21.1136 15.6553C20.7742 15.649 20.4354 15.6605 20.0959 15.6542C19.6941 15.65 19.4365 15.4266 19.4339 15.0875C19.4405 14.757 19.6826 14.5256 20.0755 14.5301C20.522 14.5327 20.985 14.4991 21.4247 14.5645C22.2321 14.6799 22.7907 15.3572 22.8183 16.1687C22.8262 16.4005 22.8163 16.6329 22.8242 16.8648C23.6397 17.2209 23.9733 17.8434 23.9667 18.7006C23.9545 20.4418 23.9688 22.1732 23.9744 23.9138C23.979 25.1009 23.2974 25.7936 22.1191 25.7979C18.852 25.8019 15.585 25.8148 12.3178 25.8188C11.1396 25.8231 10.4555 25.1322 10.4509 23.9451C10.4456 21.4278 10.4403 18.9106 10.4351 16.3933C10.4314 15.2329 11.122 14.5399 12.2913 14.5358C12.6037 14.5342 12.9071 14.5328 13.2198 14.54C13.5682 14.546 13.8082 14.7789 13.8189 15.0909C13.8298 15.4119 13.5794 15.6615 13.2224 15.6647C12.8657 15.6768 12.5081 15.6622 12.1515 15.6743C11.8037 15.6862 11.5705 15.9173 11.5633 16.23C11.565 16.5424 11.8056 16.793 12.1448 16.7904C15.3228 16.7895 18.4916 16.78 21.705 16.7689L21.6964 16.7781ZM11.5588 17.9352C11.5655 19.9703 11.5645 22.0415 11.5725 24.1123C11.576 24.4782 11.8154 24.6932 12.1902 24.6894C15.5376 24.6827 18.8761 24.6763 22.2236 24.6696C22.2682 24.6681 22.3216 24.6663 22.3662 24.6647C22.6233 24.6114 22.8147 24.462 22.8326 24.2025C22.8639 23.8087 22.841 23.3988 22.836 22.9883C22.2558 22.9902 21.7026 23.0001 21.1488 22.9921C20.5683 22.9851 20.087 22.7426 19.7582 22.2628C19.3917 21.7217 19.3449 21.1341 19.6287 20.5532C19.921 19.963 20.4276 19.6333 21.0874 19.6108C21.6581 19.5914 22.23 19.6077 22.828 19.6053C22.826 19.2839 22.8247 18.9804 22.8236 18.6859C22.8211 18.0879 22.6545 17.915 22.0476 17.9178C18.9412 17.9252 15.8348 17.9326 12.7195 17.9404L11.5502 17.9444L11.5588 17.9352ZM22.8214 20.7214C22.2858 20.7217 21.7769 20.7211 21.268 20.7206C21.2234 20.7221 21.1699 20.7239 21.1253 20.7254C20.8139 20.7539 20.589 20.9669 20.5812 21.2617C20.5727 21.5388 20.77 21.8266 21.0559 21.8348C21.646 21.8594 22.2256 21.8396 22.8236 21.8372L22.8214 20.7214Z" fill="white" stroke="white" stroke-width="0.3"/>
<path d="M16.0497 13.6565C16.052 12.6744 16.0362 11.684 16.0563 10.7014C16.0589 10.5138 16.1488 10.2697 16.2792 10.1671C16.4096 10.0645 16.6682 10.0557 16.8483 10.1031C17.0826 10.1666 17.1708 10.3957 17.1703 10.6456C17.1742 11.5472 17.1781 12.4487 17.173 13.3505C17.1767 13.4575 17.18 13.5555 17.1772 13.7342C17.3586 13.5584 17.4968 13.4198 17.6438 13.2809C17.7475 13.1792 17.8333 13.078 17.9462 12.9849C18.1805 12.7895 18.5028 12.8143 18.7152 13.0213C18.9097 13.2289 18.9474 13.549 18.7403 13.7614C18.1626 14.3613 17.5757 14.9526 16.9706 15.5355C16.7544 15.7393 16.4506 15.7318 16.229 15.5161C15.6475 14.9556 15.0747 14.3859 14.5104 13.807C14.2793 13.5738 14.2948 13.243 14.5105 13.0214C14.7347 12.7906 15.065 12.7883 15.3228 13.0206C15.4424 13.1236 15.5536 13.2448 15.6646 13.3571C15.7755 13.4694 15.8689 13.5912 15.9712 13.7127L16.0497 13.6565Z" fill="white" stroke="white" stroke-width="0.3"/>
<defs>
<filter id="filter0_b_1062_4260" x="-2.86206" y="-1.89502" width="39.7241" height="42.79" filterUnits="userSpaceOnUse" color-interpolation-filters="sRGB">
<feFlood flood-opacity="0" result="BackgroundImageFix"/>
<feGaussianBlur in="BackgroundImageFix" stdDeviation="1.5"/>
<feComposite in2="SourceAlpha" operator="in" result="effect1_backgroundBlur_1062_4260"/>
<feBlend mode="normal" in="SourceGraphic" in2="effect1_backgroundBlur_1062_4260" result="shape"/>
</filter>
</defs>
</svg>
