<svg width="34" height="39" viewBox="0 0 34 39" fill="none" xmlns="http://www.w3.org/2000/svg">
<g filter="url(#filter0_b_1062_4268)">
<path d="M21.151 36.8049C19.015 38.1608 16.3137 38.2586 14.0853 37.0608L4.23183 31.7645C2.04026 30.5866 0.638698 28.3338 0.55038 25.8473L0.142379 14.3603C0.0541863 11.8773 1.28879 9.5336 3.38641 8.20202L12.849 2.19513C14.985 0.839239 17.6863 0.741389 19.9147 1.9392L29.7681 7.2355C31.9597 8.41348 33.3612 10.6662 33.4496 13.1527L33.8576 24.6397C33.9458 27.1227 32.7112 29.4664 30.6136 30.798L21.151 36.8049Z" fill="#7BDEFF" fill-opacity="0.4"/>
</g>
<path d="M13.8194 14.8692C13.8161 14.5162 13.8054 14.2207 13.8137 13.9245C13.8363 12.9692 14.5087 12.2957 15.4722 12.2799C16.4166 12.2647 17.3613 12.2591 18.3068 12.2725C19.2617 12.2856 19.9256 12.9583 19.951 13.9215C19.9614 14.2074 19.9523 14.4846 19.9556 14.8376C20.786 14.8361 21.587 14.8166 22.399 14.8349C22.7047 14.8429 23.0391 14.8499 23.3197 14.9542C24.0457 15.2333 24.4569 15.7816 24.4566 16.5643C24.4803 18.7969 24.4849 21.0302 24.4896 23.2636C24.4874 24.2563 23.7793 24.9979 22.7788 25.0437C22.3403 25.0596 21.9106 25.0561 21.4715 25.0529C18.0836 25.0708 14.6958 25.0887 11.3077 25.097C10.0385 25.1048 9.35586 24.4423 9.34801 23.1732C9.33834 21.0641 9.35694 18.9444 9.30914 16.8368C9.281 15.7974 10.0461 14.7865 11.299 14.8556C12.112 14.9025 12.9406 14.8534 13.8091 14.8505L13.8194 14.8692ZM18.2778 19.6327C18.275 20.0814 18.2739 20.5778 18.2823 21.0738C18.2961 21.4551 18.1018 21.6244 17.7392 21.628C17.1952 21.6287 16.6607 21.629 16.117 21.6391C15.7262 21.6533 15.5382 21.4692 15.5523 21.0678C15.5632 20.5806 15.5548 20.0846 15.5491 19.6648C13.7449 19.3962 11.9986 19.1445 10.2424 18.8837C10.2427 18.8932 10.2162 18.9515 10.2088 19.009C10.2136 20.4596 10.2093 21.9202 10.2333 23.3701C10.2462 23.9901 10.6004 24.2827 11.2779 24.2772C15.0096 24.2659 18.7504 24.2448 22.4818 24.2241C23.3121 24.2226 23.6251 23.9058 23.6237 23.0755C23.624 21.7678 23.6151 20.47 23.6059 19.1627C23.601 19.0292 23.5966 18.9053 23.5839 18.8199C21.809 19.0942 20.0721 19.3672 18.2877 19.6419L18.2778 19.6327ZM23.5889 17.9034C23.5832 17.4836 23.5834 17.2259 23.5839 16.9777C23.5755 15.9567 23.3177 15.6893 22.3062 15.6973C18.7941 15.7101 15.292 15.7321 11.7799 15.745C10.3388 15.7495 10.1921 15.9171 10.1867 17.349C10.1815 17.731 10.2923 17.8892 10.6675 17.9711C13.324 18.5811 16.0249 18.8363 18.7365 18.5948C20.3539 18.4502 21.9463 18.1443 23.5889 17.9034ZM19.0677 14.8316C19.0638 14.4595 19.0901 14.134 19.0593 13.8106C19.0165 13.4208 18.7689 13.1721 18.3679 13.1675C17.3748 13.1558 16.3919 13.1628 15.3998 13.1797C15.0185 13.1936 14.7687 13.4126 14.7151 13.7773C14.6704 14.1225 14.7121 14.4837 14.7066 14.8561L19.0681 14.8411L19.0677 14.8316ZM16.4441 19.6038L16.4457 20.7014L17.3714 20.6964L17.3698 19.5988L16.4441 19.6038Z" fill="white" stroke="white" stroke-width="0.575784"/>
<defs>
<filter id="filter0_b_1062_4268" x="-2.86206" y="-1.89502" width="39.7241" height="42.79" filterUnits="userSpaceOnUse" color-interpolation-filters="sRGB">
<feFlood flood-opacity="0" result="BackgroundImageFix"/>
<feGaussianBlur in="BackgroundImageFix" stdDeviation="1.5"/>
<feComposite in2="SourceAlpha" operator="in" result="effect1_backgroundBlur_1062_4268"/>
<feBlend mode="normal" in="SourceGraphic" in2="effect1_backgroundBlur_1062_4268" result="shape"/>
</filter>
</defs>
</svg>
