<svg width="84" height="10" viewBox="0 0 84 10" fill="none" xmlns="http://www.w3.org/2000/svg">
<path d="M4.23938 0.759455C4.78049 0.812679 5.24176 0.945724 5.61433 1.15862C5.98691 1.37152 6.26189 1.6554 6.43931 2.01023C6.6256 2.36506 6.68768 2.78198 6.6522 3.25212C6.60785 3.72227 6.46593 4.12145 6.22642 4.4408C5.98691 4.76014 5.65871 4.99078 5.25066 5.13271C4.8426 5.27464 4.36353 5.32787 3.81354 5.27464C3.30791 5.23029 2.81119 5.17706 2.30555 5.13271C2.22572 5.95769 2.14586 6.78265 2.06603 7.6165C1.56039 7.56327 1.06362 7.51894 0.557983 7.46571C0.797494 5.13271 1.03699 2.80858 1.26763 0.475586C2.26116 0.573164 3.24585 0.67073 4.23938 0.768308V0.759455ZM3.69827 4.09482C4.14181 4.13918 4.48775 4.07709 4.73614 3.90855C4.97565 3.74 5.10867 3.48277 5.14416 3.11907C5.17964 2.75537 5.09095 2.46263 4.88692 2.25861C4.6829 2.05458 4.3547 1.93038 3.91116 1.88603C3.48536 1.84167 3.05957 1.8062 2.64265 1.76185C2.57168 2.49812 2.50067 3.23437 2.4297 3.96177C2.8555 4.00612 3.2813 4.04162 3.7071 4.08597L3.69827 4.09482Z" fill="#03313B"/>
<path d="M7.47516 8.09523C7.62596 6.32995 7.77672 4.5558 7.92752 2.79053C8.35332 2.82601 8.788 2.86149 9.21379 2.89697C9.21379 3.24293 9.2138 3.59778 9.22267 3.94374C9.40009 3.58891 9.63071 3.32276 9.92345 3.14535C10.2162 2.96794 10.571 2.89698 10.9879 2.93246C11.1121 2.94133 11.2186 2.95908 11.325 2.99456C11.4226 3.02118 11.5025 3.05665 11.5646 3.10101C11.4759 3.50019 11.3872 3.90823 11.2985 4.30741C11.2275 4.27193 11.1387 4.24534 11.0412 4.21873C10.9347 4.20099 10.8017 4.18325 10.6332 4.1655C10.4203 4.14776 10.1985 4.18324 9.99443 4.27195C9.78153 4.36066 9.60413 4.50257 9.4622 4.69773C9.3114 4.89288 9.23153 5.15903 9.20492 5.4695C9.13395 6.38319 9.05411 7.30572 8.98315 8.2194C8.48638 8.17505 7.98075 8.13958 7.48398 8.09523H7.47516Z" fill="#03313B"/>
<path d="M14.5043 8.73058C13.9277 8.69509 13.4309 8.54427 13.0228 8.29589C12.6147 8.04751 12.3043 7.71043 12.1003 7.27577C11.8962 6.84997 11.8164 6.34436 11.8607 5.76776C11.9051 5.18229 12.0559 4.70325 12.322 4.30407C12.5793 3.91376 12.9341 3.62104 13.3599 3.42588C13.7946 3.23959 14.2736 3.15975 14.8058 3.19523C15.3558 3.23071 15.8082 3.37265 16.1808 3.61216C16.5445 3.85167 16.8195 4.16214 17.0058 4.55245C17.1832 4.93389 17.2631 5.36857 17.2276 5.83871C17.2276 5.98065 17.2098 6.11372 17.1921 6.23791C17.1743 6.3621 17.1566 6.47742 17.1388 6.575C15.6929 6.48629 14.2381 6.3887 12.7922 6.28225C12.8188 5.94516 12.8365 5.60809 12.8631 5.271C14.0873 5.35971 15.3204 5.43955 16.5445 5.51938C16.305 5.59035 16.0566 5.6613 15.8082 5.73227C15.8348 5.28873 15.755 4.93391 15.5687 4.68553C15.3824 4.42828 15.0986 4.29522 14.7171 4.26861C14.4421 4.25087 14.2026 4.29522 13.9986 4.41054C13.7946 4.52586 13.6261 4.70326 13.5107 4.95164C13.3954 5.19115 13.3156 5.5105 13.289 5.89194C13.2623 6.26451 13.289 6.58385 13.3954 6.83223C13.493 7.08061 13.6349 7.27576 13.8389 7.40882C14.0341 7.54188 14.2824 7.62173 14.5752 7.63947C14.8945 7.65721 15.1607 7.62173 15.3647 7.50641C15.5687 7.39996 15.7284 7.24029 15.8526 7.03627C16.2429 7.21368 16.6243 7.38222 17.0146 7.55964C16.8816 7.82576 16.6865 8.05639 16.4381 8.24267C16.1897 8.42896 15.8969 8.56203 15.5687 8.64186C15.2405 8.7217 14.8857 8.74832 14.5131 8.73058H14.5043Z" fill="#03313B"/>
<path d="M21.9871 3.74481C22.5016 3.77142 23.0072 3.79802 23.5217 3.81576C22.7588 5.55442 21.9782 7.29309 21.1976 9.03175C20.621 9.00514 20.0444 8.96965 19.4678 8.94303C18.8734 7.13341 18.288 5.32379 17.7025 3.51416C18.2347 3.54964 18.7581 3.57626 19.2903 3.60287C19.654 5.03106 20.0266 6.45038 20.3992 7.87856C20.9314 6.5036 21.4637 5.12865 21.9871 3.75369V3.74481Z" fill="#03313B"/>
<path d="M26.5963 9.38277C26.0197 9.36503 25.5229 9.23197 25.106 8.99246C24.6891 8.75295 24.3698 8.42472 24.1569 8.00779C23.944 7.59087 23.8464 7.08526 23.873 6.49979C23.8996 5.91432 24.0326 5.42643 24.2899 5.02725C24.5383 4.62807 24.8754 4.32644 25.3012 4.12242C25.727 3.91839 26.206 3.82969 26.7382 3.84743C27.2882 3.86517 27.7495 3.98937 28.1221 4.22001C28.4947 4.45065 28.7785 4.75225 28.9737 5.13369C29.16 5.51513 29.2487 5.94093 29.2398 6.41108C29.2398 6.55301 29.2309 6.68606 29.2132 6.81912C29.2043 6.94331 29.1866 7.05864 29.1688 7.15621C27.7229 7.11186 26.2681 7.05864 24.8222 6.99655C24.8399 6.65946 24.8488 6.32236 24.8665 5.98527C26.0907 6.0385 27.3237 6.08285 28.5567 6.12721C28.3172 6.20704 28.0688 6.27802 27.8293 6.35785C27.8471 5.91432 27.7495 5.5595 27.5543 5.31112C27.3592 5.06274 27.0665 4.92967 26.6939 4.9208C26.4189 4.91193 26.1794 4.96515 25.9754 5.08047C25.7713 5.20466 25.6116 5.38207 25.5052 5.63045C25.3899 5.87883 25.3278 6.18931 25.3101 6.57962C25.2923 6.95219 25.3366 7.27154 25.4431 7.51992C25.5495 7.7683 25.7004 7.95457 25.9044 8.08763C26.1084 8.22069 26.3568 8.2828 26.6496 8.30054C26.9689 8.30941 27.235 8.26505 27.4302 8.14973C27.6342 8.03441 27.7939 7.87473 27.9092 7.6707C28.2995 7.83038 28.6898 7.99894 29.0801 8.15861C28.9559 8.4336 28.7697 8.66424 28.5302 8.85052C28.2818 9.04568 27.9979 9.18762 27.6697 9.27633C27.3414 9.36503 26.9866 9.40937 26.614 9.39162L26.5963 9.38277Z" fill="#03313B"/>
<path d="M30.3939 9.3915C30.4471 7.61735 30.4915 5.84321 30.5447 4.06907C30.9882 4.07794 31.4318 4.09569 31.8753 4.10456C31.8931 4.6368 31.9019 5.16903 31.9197 5.70128C31.8576 5.63918 31.7955 5.58597 31.7423 5.52388C31.8399 5.17792 31.9818 4.89405 32.177 4.68115C32.3721 4.45938 32.6027 4.29972 32.8777 4.19327C33.1527 4.08682 33.4543 4.03359 33.7737 4.04246C34.1463 4.04246 34.4833 4.13117 34.7672 4.2731C35.0599 4.42391 35.2817 4.6368 35.4503 4.92953C35.6188 5.22226 35.6986 5.58596 35.6897 6.01176C35.672 7.17382 35.6543 8.33589 35.6365 9.50682C35.1398 9.50682 34.6341 9.48908 34.1374 9.48021C34.1551 8.45121 34.1729 7.43107 34.1995 6.40207C34.2083 5.94966 34.1196 5.63031 33.9422 5.4529C33.7648 5.27548 33.5342 5.18678 33.2415 5.17791C33.0374 5.17791 32.8422 5.21339 32.6471 5.31096C32.4519 5.39967 32.2923 5.55048 32.1681 5.76338C32.0439 5.97628 31.9818 6.26015 31.9729 6.60611C31.9463 7.5464 31.9286 8.48669 31.902 9.42699C31.4052 9.41812 30.8996 9.40037 30.4028 9.3915H30.3939Z" fill="#03313B"/>
<path d="M40.8532 4.22205C40.8532 4.58575 40.8532 4.94945 40.8532 5.30428C39.4427 5.30428 38.0412 5.28656 36.6307 5.26882C36.6307 4.90512 36.6396 4.54142 36.6484 4.18659C38.05 4.20433 39.4516 4.21318 40.8621 4.22205H40.8532ZM39.1322 2.58984C39.1234 4.3285 39.1057 6.06717 39.0968 7.80583C39.0968 8.06308 39.1589 8.24937 39.292 8.36469C39.425 8.48001 39.6113 8.54209 39.842 8.54209C40.0282 8.54209 40.1968 8.51548 40.3298 8.46225C40.4629 8.40903 40.5871 8.33807 40.6935 8.24936C40.7733 8.56871 40.8532 8.89692 40.933 9.21627C40.7556 9.34933 40.5339 9.45579 40.2766 9.53563C40.0105 9.61547 39.7355 9.65093 39.4428 9.65093C39.0791 9.65093 38.7508 9.58886 38.4758 9.48241C38.192 9.37596 37.9791 9.19853 37.8194 8.96789C37.6597 8.72838 37.5888 8.41791 37.5976 8.0276C37.6154 6.34216 37.6331 4.66559 37.6508 2.98016C38.1476 2.8471 38.6355 2.7229 39.1322 2.58984Z" fill="#03313B"/>
<path d="M42.6021 3.47092C42.2916 3.47092 42.0609 3.40883 41.9101 3.27577C41.7593 3.1427 41.6795 2.94755 41.6795 2.69917C41.6795 2.43305 41.7593 2.23789 41.9101 2.10482C42.0609 1.97176 42.2916 1.90967 42.6021 1.90967C42.9125 1.90967 43.1432 1.97176 43.294 2.10482C43.4448 2.23789 43.5246 2.43305 43.5246 2.69917C43.5246 2.95643 43.4536 3.15158 43.3028 3.28464C43.152 3.41771 42.9214 3.4798 42.6109 3.4798L42.6021 3.47092ZM43.3383 4.23379C43.3383 6.00793 43.3472 7.78208 43.3561 9.55622C42.8593 9.55622 42.3537 9.55622 41.8569 9.55622C41.8569 7.78208 41.8569 6.00793 41.8569 4.23379C42.3537 4.23379 42.8415 4.23379 43.3383 4.23379Z" fill="#03313B"/>
<path d="M48.4578 4.19458C48.9723 4.19458 49.4779 4.17684 49.9924 4.16797C49.3449 5.95985 48.6796 7.74287 48.0143 9.52589C47.4377 9.52589 46.8611 9.54362 46.2845 9.54362C45.5748 7.77835 44.8651 6.00419 44.1732 4.23892C44.7055 4.23892 45.2377 4.23894 45.7611 4.23007C46.2224 5.63164 46.6837 7.02435 47.145 8.41705C47.5885 7.00661 48.0231 5.60502 48.4578 4.19458Z" fill="#03313B"/>
<path d="M53.4229 9.50017C52.8463 9.51791 52.3407 9.42034 51.906 9.20745C51.4713 8.99455 51.1342 8.68407 50.8947 8.28488C50.6552 7.87683 50.5221 7.38896 50.5133 6.80349C50.5044 6.21802 50.6108 5.72126 50.8326 5.30434C51.0544 4.88741 51.3737 4.56805 51.7818 4.33741C52.1898 4.10677 52.66 3.9826 53.1923 3.97373C53.7422 3.95599 54.2035 4.05355 54.5939 4.25757C54.9842 4.4616 55.2857 4.74548 55.4986 5.10918C55.7115 5.47288 55.8269 5.89866 55.8446 6.36881C55.8446 6.51074 55.8446 6.64379 55.8446 6.77685C55.8446 6.90104 55.8357 7.01637 55.8269 7.11394C54.3809 7.16717 52.9261 7.20266 51.4802 7.23815C51.4802 6.90106 51.4624 6.56396 51.4536 6.22687C52.6866 6.20026 53.9108 6.16478 55.1438 6.12043C54.9043 6.20914 54.6736 6.30671 54.4341 6.39542C54.4164 5.95188 54.31 5.60593 54.0882 5.37529C53.8753 5.13578 53.5826 5.02933 53.2011 5.0382C52.9261 5.0382 52.6955 5.11806 52.4915 5.25112C52.2963 5.38418 52.1544 5.57931 52.0568 5.83656C51.9592 6.09381 51.9149 6.41317 51.9237 6.79461C51.9326 7.16718 51.9947 7.47765 52.1189 7.72603C52.2342 7.96553 52.4027 8.14295 52.6156 8.25827C52.8285 8.37359 53.0769 8.42681 53.3697 8.41794C53.689 8.41794 53.9463 8.33812 54.1414 8.21393C54.3366 8.08974 54.4785 7.92118 54.585 7.69941C54.9842 7.83248 55.3833 7.9744 55.7914 8.10746C55.6849 8.39132 55.5164 8.63084 55.2857 8.83487C55.0551 9.03889 54.7801 9.19857 54.4608 9.31389C54.1414 9.42921 53.7866 9.4913 53.4229 9.50017Z" fill="#03313B"/>
<path d="M66.7991 6.87243C66.6927 7.33371 66.4975 7.72404 66.2137 8.05225C65.9298 8.3716 65.5927 8.61997 65.1935 8.79739C64.7943 8.96593 64.3508 9.07238 63.8629 9.09899C63.1444 9.13447 62.5234 9.02802 61.9823 8.7619C61.45 8.49578 61.0243 8.0966 60.7227 7.57323C60.421 7.04985 60.2525 6.41116 60.217 5.65715C60.1815 4.90314 60.2968 4.25559 60.5452 3.70561C60.7936 3.15562 61.1751 2.72096 61.6718 2.40161C62.1686 2.08226 62.7629 1.91372 63.4549 1.86936C63.9428 1.84275 64.3863 1.88709 64.7944 1.99354C65.1935 2.09999 65.5395 2.28627 65.8411 2.54352C66.1338 2.80077 66.3556 3.12899 66.5153 3.5193C66.0806 3.7322 65.637 3.9451 65.1935 4.15799C65.0427 3.74107 64.8387 3.44835 64.5814 3.2798C64.3153 3.11126 63.9871 3.04029 63.5968 3.05803C63.2065 3.07578 62.8694 3.19109 62.5944 3.38625C62.3105 3.59027 62.0976 3.86526 61.9557 4.23783C61.8138 4.60153 61.7517 5.04507 61.7783 5.57731C61.8049 6.09182 61.9025 6.52648 62.0622 6.88131C62.2307 7.23614 62.4613 7.49338 62.7629 7.67079C63.0645 7.83933 63.4283 7.9103 63.8452 7.89256C64.2355 7.87482 64.5726 7.75065 64.8476 7.52888C65.1226 7.30712 65.3089 6.98775 65.3976 6.56195C65.8677 6.6684 66.3378 6.77486 66.808 6.88131L66.7991 6.87243Z" fill="#03313B"/>
<path d="M70.9274 5.1158C70.9097 4.8142 70.8032 4.58356 70.6081 4.42389C70.4218 4.26422 70.1823 4.19324 69.8895 4.21985C69.6234 4.23759 69.3927 4.31743 69.1976 4.46823C69.0024 4.61903 68.8694 4.84968 68.7984 5.16902C68.3637 5.07145 67.938 4.97387 67.5033 4.86742C67.6009 4.38841 67.8403 3.99811 68.2395 3.68763C68.6387 3.37716 69.1799 3.19974 69.8807 3.15538C70.3597 3.1199 70.7766 3.16425 71.1403 3.28844C71.504 3.41263 71.7967 3.60777 72.0185 3.88276C72.2403 4.15775 72.3644 4.5126 72.3999 4.95614C72.4531 5.67466 72.5064 6.39319 72.5596 7.11171C72.5773 7.37783 72.7193 7.50204 72.9854 7.48429C73.1096 7.47542 73.2249 7.44879 73.3314 7.40443C73.3314 7.70604 73.3225 8.00764 73.3136 8.31812C73.1274 8.42457 72.8967 8.48666 72.6128 8.51327C72.3556 8.53101 72.1249 8.51328 71.912 8.43344C71.6991 8.36247 71.5306 8.24716 71.4064 8.07862C71.2822 7.91007 71.2024 7.69718 71.1846 7.43993C71.1846 7.42218 71.1846 7.41332 71.1846 7.39558C71.2733 7.37784 71.3532 7.35122 71.4419 7.33348C71.4153 7.60847 71.3177 7.84797 71.1314 8.04313C70.9451 8.24715 70.7234 8.40683 70.4484 8.52215C70.1734 8.63747 69.8895 8.70845 69.5879 8.72619C69.2153 8.7528 68.8871 8.72617 68.6121 8.6286C68.3371 8.53989 68.1153 8.38909 67.9557 8.18506C67.796 7.98104 67.7073 7.72379 67.6895 7.41331C67.6629 7.01413 67.7783 6.68592 68.0178 6.4198C68.2661 6.15368 68.621 5.95852 69.1 5.83433C69.7742 5.65691 70.4395 5.47064 71.1137 5.29323C71.1314 5.59483 71.1492 5.89643 71.1669 6.19803C70.7411 6.31335 70.3065 6.42866 69.8807 6.54397C69.6323 6.61494 69.4549 6.68591 69.3307 6.77462C69.2065 6.86333 69.1533 7.00525 69.171 7.18267C69.1799 7.36008 69.2597 7.49314 69.4016 7.57298C69.5435 7.65282 69.7121 7.68832 69.8984 7.67945C70.0492 7.67058 70.2 7.63509 70.3419 7.59074C70.4838 7.54639 70.6081 7.48429 70.7234 7.39558C70.8387 7.30688 70.9185 7.20042 70.9717 7.05849C71.025 6.91656 71.0516 6.75689 71.0338 6.56173C70.9984 6.08271 70.9629 5.6037 70.9274 5.12468V5.1158Z" fill="#03313B"/>
<path d="M74.3294 8.27375C74.1874 6.50848 74.0455 4.73435 73.9125 2.96908C74.3383 2.9336 74.773 2.89812 75.1987 2.86263C75.2608 3.20859 75.3229 3.55453 75.385 3.89161C75.5003 3.51017 75.6866 3.20858 75.9439 2.98681C76.2011 2.76504 76.5471 2.64085 76.964 2.5965C77.0882 2.58763 77.1947 2.58763 77.3011 2.5965C77.4076 2.60537 77.4874 2.63199 77.5584 2.6586C77.5406 3.06665 77.514 3.48356 77.4962 3.89161C77.4253 3.87387 77.3277 3.85614 77.2213 3.84727C77.1148 3.84727 76.9818 3.84726 76.8132 3.865C76.6003 3.88274 76.3963 3.95372 76.2012 4.06904C76.006 4.19323 75.8552 4.36178 75.7399 4.57468C75.6245 4.79644 75.5802 5.06257 75.6068 5.38191C75.6866 6.2956 75.7576 7.21816 75.8374 8.13184C75.3407 8.1762 74.835 8.21167 74.3383 8.25602L74.3294 8.27375Z" fill="#03313B"/>
<path d="M81.3932 7.7507C80.8166 7.80392 80.3022 7.75071 79.8586 7.56442C79.4151 7.38701 79.0514 7.10312 78.7852 6.71281C78.5191 6.3225 78.3595 5.8435 78.3062 5.25803C78.253 4.68143 78.324 4.17581 78.5191 3.74114C78.7143 3.30648 79.007 2.96939 79.3973 2.71214C79.7876 2.45489 80.2489 2.30407 80.7812 2.25084C81.3223 2.19762 81.8013 2.25973 82.2005 2.43715C82.5997 2.61456 82.9279 2.88067 83.1674 3.22663C83.4069 3.57258 83.5488 3.98952 83.6021 4.45967C83.6198 4.6016 83.6287 4.73465 83.6287 4.85884C83.6287 4.98303 83.6287 5.09836 83.6287 5.20481C82.1828 5.35561 80.7368 5.49752 79.2909 5.63058C79.2643 5.2935 79.2288 4.95643 79.2022 4.62822C80.4264 4.5129 81.6505 4.39756 82.8747 4.27337C82.6441 4.37981 82.4134 4.49516 82.1828 4.6016C82.1384 4.15807 82.0053 3.82096 81.7747 3.60806C81.544 3.38629 81.2425 3.29759 80.8699 3.33307C80.5949 3.35968 80.3642 3.4484 80.178 3.59033C79.9917 3.73226 79.8586 3.93629 79.7788 4.20241C79.6989 4.45966 79.6812 4.78787 79.7167 5.16044C79.7521 5.53301 79.832 5.84348 79.9739 6.07412C80.107 6.30476 80.2844 6.47333 80.5062 6.5709C80.7279 6.66848 80.9763 6.70396 81.269 6.67735C81.5884 6.64187 81.8457 6.56202 82.0231 6.42009C82.2094 6.27816 82.3425 6.10073 82.4312 5.87896C82.8392 5.98541 83.2472 6.09188 83.6642 6.2072C83.5755 6.49106 83.4246 6.7483 83.2117 6.97007C82.9988 7.19184 82.7328 7.36926 82.4134 7.50232C82.1029 7.63538 81.7569 7.72409 81.3844 7.75958L81.3932 7.7507Z" fill="#03313B"/>
</svg>
