<svg width="78" height="13" viewBox="0 0 78 13" fill="none" xmlns="http://www.w3.org/2000/svg">
<path d="M6.99054 3.45859C6.85054 5.01859 5.66055 5.84861 3.78055 5.66861C3.21055 5.60861 2.64056 5.5586 2.07056 5.4986C1.97056 6.4486 1.87055 7.40858 1.78055 8.35858C1.21055 8.29858 0.640557 8.23859 0.0705566 8.17859C0.350557 5.55859 0.630553 2.92859 0.910553 0.308594C2.03055 0.428594 3.15054 0.53859 4.27054 0.64859C6.13054 0.82859 7.14054 1.83859 6.99054 3.45859ZM5.28055 3.2886C5.36055 2.4886 4.93055 2.0386 3.88055 1.9386C3.40055 1.8886 2.92055 1.83858 2.44055 1.79858C2.36055 2.60858 2.27055 3.4086 2.19055 4.2186C2.67055 4.2686 3.15056 4.31859 3.64056 4.36859C4.70056 4.46859 5.20055 4.09858 5.28055 3.29858V3.2886Z" fill="white"/>
<path d="M12.5305 3.29874C12.4305 3.76874 12.3206 4.24875 12.2206 4.71875C12.0606 4.59875 11.7805 4.50876 11.4605 4.47876C10.7205 4.41876 9.95053 4.88876 9.86053 5.97876C9.78053 7.00876 9.69053 8.03874 9.61053 9.07874C9.04053 9.02874 8.48055 8.98875 7.91055 8.93875C8.08055 6.94875 8.25056 4.95875 8.42056 2.96875C8.90056 3.00875 9.39054 3.04875 9.87054 3.08875C9.87054 3.47875 9.87055 3.87874 9.88055 4.26874C10.2706 3.46874 10.9306 3.04875 11.8806 3.12875C12.1506 3.14875 12.3905 3.21875 12.5305 3.30875V3.29874Z" fill="white"/>
<path d="M13.5006 1.60883C13.5406 1.01883 13.9006 0.748828 14.5906 0.798828C15.2806 0.848828 15.6006 1.16884 15.5606 1.74884C15.5206 2.33884 15.1606 2.59883 14.4706 2.54883C13.7806 2.49883 13.4506 2.18885 13.5006 1.59885V1.60883ZM14.8506 9.45883C14.2806 9.41883 13.7106 9.37884 13.1506 9.33884C13.2906 7.34884 13.4306 5.34883 13.5706 3.35883C14.1306 3.39883 14.6906 3.43884 15.2406 3.46884C15.1106 5.45884 14.9806 7.45885 14.8506 9.44885V9.45883Z" fill="white"/>
<path d="M26.7907 6.10812C26.7407 7.41812 26.7007 8.72815 26.6507 10.0381C26.0907 10.0181 25.5207 9.99815 24.9607 9.97815C25.0107 8.77815 25.0507 7.57813 25.1007 6.36813C25.1307 5.49813 24.7007 5.13813 24.0907 5.11813C23.3407 5.08813 22.7207 5.60814 22.6707 6.65814C22.6207 7.72814 22.5707 8.80814 22.5307 9.87814C21.9607 9.84814 21.3907 9.82813 20.8307 9.79813C20.8907 8.59813 20.9507 7.39814 21.0107 6.18814C21.0507 5.31814 20.6307 4.95813 20.0007 4.92813C19.3507 4.89813 18.6307 5.31814 18.5607 6.49814C18.5007 7.55814 18.4407 8.61815 18.3807 9.66815C17.8107 9.63815 17.2407 9.59815 16.6807 9.56815C16.8007 7.56815 16.9207 5.57812 17.0407 3.57812C17.5407 3.60812 18.0407 3.63815 18.5407 3.66815C18.5407 4.01815 18.5407 4.36815 18.5407 4.72815C18.9907 3.95815 19.7707 3.61814 20.6207 3.65814C21.5007 3.70814 22.2607 4.13814 22.5607 4.96814C23.0007 4.16814 23.8407 3.80814 24.6907 3.84814C25.8807 3.89814 26.8507 4.63812 26.7907 6.10812Z" fill="white"/>
<path d="M34.5405 9.18009C34.4905 9.51009 34.4505 9.84011 34.4005 10.1701C34.1805 10.2801 33.9005 10.3301 33.5905 10.3301C32.8405 10.3201 32.3405 10.0601 32.1705 9.4101C31.7905 9.9901 31.0005 10.2901 29.9505 10.2601C28.7705 10.2301 28.0405 9.68011 28.0705 8.67011C28.1005 7.73011 28.8705 7.10009 30.5305 6.84009C31.0305 6.76009 31.5205 6.68009 32.0105 6.59009C32.0105 6.49009 32.0105 6.40008 32.0105 6.30008C32.0205 5.66008 31.6505 5.25009 30.9905 5.24009C30.2805 5.22009 29.7605 5.48011 29.5505 6.23011C29.1105 6.03011 28.6705 5.84011 28.2205 5.64011C28.5105 4.63011 29.4405 4.0101 30.9405 4.0401C32.6405 4.0801 33.7105 4.81008 33.6905 6.30008C33.6805 7.12008 33.6705 7.94011 33.6605 8.76011C33.6605 9.07011 33.7904 9.2201 34.1104 9.2201C34.2604 9.2201 34.4105 9.22009 34.5305 9.18009H34.5405ZM31.9905 8.23011C31.9905 8.02011 31.9905 7.81008 32.0005 7.61008C31.5605 7.70008 31.1105 7.78009 30.6705 7.87009C30.1205 7.98009 29.8305 8.16009 29.8205 8.56009C29.8205 8.94009 30.0705 9.1501 30.5105 9.1601C31.1605 9.1701 31.9705 8.87011 31.9805 8.23011H31.9905Z" fill="white"/>
<path d="M39.7506 4.25891C39.6806 4.73891 39.6106 5.21891 39.5506 5.69891C39.3806 5.58891 39.1006 5.51889 38.7806 5.51889C38.0406 5.51889 37.3006 6.04892 37.3006 7.13892C37.3006 8.17892 37.3006 9.2089 37.2906 10.2489C36.7206 10.2489 36.1506 10.2489 35.5806 10.2389C35.6006 8.23889 35.6106 6.23889 35.6306 4.23889C36.1206 4.23889 36.6006 4.23889 37.0906 4.23889C37.1206 4.62889 37.1606 5.01891 37.1906 5.41891C37.5106 4.58891 38.1406 4.12891 39.0906 4.12891C39.3606 4.12891 39.6006 4.17891 39.7506 4.25891Z" fill="white"/>
<path d="M44.2805 10.5702C43.6905 12.2102 42.9705 12.8001 41.6205 12.8102C40.9305 12.8102 40.4305 12.6702 40.0305 12.3502C40.1705 11.9602 40.3105 11.5701 40.4505 11.1801C40.7305 11.4801 41.0505 11.5501 41.5005 11.5501C41.9805 11.5501 42.3005 11.4002 42.5205 10.8202C42.5905 10.6502 42.6705 10.4701 42.7405 10.3001C42.5105 9.78014 42.2705 9.27015 42.0405 8.75015C41.3905 7.25015 40.7605 5.75014 40.1205 4.24014C40.7405 4.24014 41.3605 4.24016 41.9805 4.23016C42.3705 5.43016 42.7705 6.62015 43.1805 7.81015C43.3005 8.21015 43.4105 8.61016 43.5305 9.01016C43.6505 8.58016 43.7705 8.16016 43.8805 7.73016C44.2405 6.55016 44.6005 5.37015 44.9605 4.19016C45.5305 4.19016 46.0905 4.17016 46.6605 4.16016C45.8805 6.30016 45.0905 8.44016 44.2905 10.5702H44.2805Z" fill="white"/>
<path d="M55.0106 9.99922C52.5706 10.1092 51.0006 8.6192 50.9106 6.0792C50.8306 3.5392 52.2706 1.95922 54.6206 1.84922C56.2606 1.77922 57.5206 2.37923 58.0506 3.72923C57.5506 3.96923 57.0506 4.20922 56.5506 4.43922C56.2306 3.49922 55.6806 3.14922 54.7506 3.18922C53.4106 3.24922 52.6006 4.23922 52.6706 5.99922C52.7406 7.74922 53.5806 8.68922 54.9606 8.62922C55.9406 8.58922 56.5606 8.09923 56.7706 7.13923C57.3006 7.26923 57.8306 7.38923 58.3606 7.50923C57.9506 9.07923 56.6706 9.90923 55.0006 9.97923L55.0106 9.99922Z" fill="white"/>
<path d="M65.8105 8.17753C65.7905 8.50753 65.7805 8.84753 65.7605 9.17753C65.5405 9.29753 65.2704 9.37754 64.9604 9.40754C64.2104 9.45754 63.6905 9.24752 63.4705 8.60752C63.1405 9.21752 62.3804 9.58753 61.3304 9.64753C60.1504 9.71753 59.3705 9.23755 59.3205 8.22755C59.2705 7.29755 59.9804 6.59754 61.6104 6.18754C62.1004 6.06754 62.5805 5.93755 63.0705 5.81755C63.0705 5.71755 63.0604 5.62754 63.0504 5.52754C63.0104 4.89754 62.6005 4.51754 61.9405 4.55754C61.2305 4.60754 60.7305 4.89755 60.5905 5.66755C60.1305 5.50755 59.6705 5.35755 59.2205 5.19755C59.4205 4.16755 60.3005 3.46753 61.7905 3.36753C63.4905 3.25753 64.6105 3.89754 64.7205 5.37754C64.7805 6.19754 64.8405 7.00752 64.9005 7.82752C64.9205 8.13752 65.0705 8.26754 65.3905 8.24754C65.5405 8.23754 65.6905 8.21755 65.8105 8.16755V8.17753ZM63.1805 7.44755C63.1705 7.23755 63.1505 7.03752 63.1405 6.82752C62.7105 6.95752 62.2705 7.07753 61.8405 7.20753C61.3005 7.35753 61.0305 7.56754 61.0605 7.96754C61.0805 8.34754 61.3604 8.53755 61.8004 8.50755C62.4504 8.46755 63.2305 8.08753 63.1905 7.45753L63.1805 7.44755Z" fill="white"/>
<path d="M70.5707 2.82733C70.5407 3.30733 70.5207 3.79734 70.4907 4.27734C70.3107 4.18734 70.0207 4.13736 69.7007 4.16736C68.9707 4.22736 68.2707 4.81735 68.3607 5.90735C68.4507 6.93735 68.5307 7.96735 68.6207 9.00735C68.0507 9.05735 67.4907 9.09734 66.9207 9.14734C66.7607 7.15734 66.6107 5.15736 66.4507 3.16736C66.9307 3.12736 67.4207 3.08733 67.9007 3.04733C67.9707 3.43733 68.0407 3.81734 68.1107 4.20734C68.3607 3.35734 68.9407 2.83735 69.9007 2.75735C70.1707 2.73735 70.4207 2.75733 70.5707 2.82733Z" fill="white"/>
<path d="M77.5304 5.76927C76.0804 5.92927 74.6205 6.07928 73.1705 6.21928C73.4305 7.05928 74.0104 7.41927 74.8404 7.32927C75.5604 7.25927 76.0004 6.94929 76.1204 6.44929C76.6004 6.55929 77.0804 6.67929 77.5504 6.78929C77.2604 7.78929 76.3604 8.39929 74.9604 8.53929C72.9004 8.74929 71.6305 7.69927 71.4505 5.73927C71.2705 3.77927 72.2804 2.53928 74.2404 2.33928C76.1404 2.14928 77.3005 3.14927 77.5105 5.10927C77.5305 5.27927 77.5404 5.59929 77.5304 5.75929V5.76927ZM73.0504 5.06929C74.0004 4.97929 74.9604 4.87928 75.9104 4.77928C75.6804 3.89928 75.1205 3.47927 74.3505 3.54927C73.5405 3.62927 73.1004 4.13928 73.0504 5.05928V5.06929Z" fill="white"/>
</svg>
