<svg width="96" height="74" viewBox="0 0 96 74" fill="none" xmlns="http://www.w3.org/2000/svg">
<path d="M8.18965 49.4766C7.92764 49.9425 7.66559 50.4084 7.41337 50.8763C6.61721 50.1459 5.71972 49.8949 4.54781 50.1684C3.45266 50.4173 3.07212 50.9604 3.30137 51.5199C3.51725 52.0459 4.11352 52.223 5.74265 52.1074C8.25096 51.9426 9.39965 52.3592 9.96203 53.6637C10.5954 55.1161 9.50298 56.3672 7.4028 56.8738C5.41081 57.3522 4.06427 57.0982 2.90969 56.3227C3.11094 55.8542 3.30237 55.3836 3.50568 54.9053C4.63186 55.7668 5.57842 55.834 6.7524 55.5507C7.87332 55.2766 8.33924 54.8129 8.08478 54.2277C7.89921 53.8 7.33384 53.6703 5.78561 53.7417C3.17174 53.874 1.96079 53.4136 1.42005 52.1034C0.846933 50.7047 1.71895 49.3354 3.96437 48.8186C5.57671 48.4439 6.86309 48.6443 8.17213 49.4627L8.18965 49.4766Z" fill="white"/>
<path d="M17.4451 51.5787C15.9167 51.9916 14.3882 52.4044 12.8423 52.8033C13.4005 53.5959 14.145 53.8452 15.0202 53.6214C15.7775 53.4237 16.1563 53.0336 16.1227 52.5155C16.6795 52.5412 17.2341 52.5767 17.7908 52.6024C17.7951 53.6458 17.0277 54.4239 15.5544 54.8178C13.3887 55.3923 11.6481 54.5849 10.8101 52.6497C9.97222 50.7146 10.6898 49.3025 12.7766 48.7624C14.7985 48.2392 16.3666 49.0408 17.2205 50.9487C17.2894 51.1063 17.4035 51.4371 17.4528 51.5906L17.4451 51.5787ZM12.3349 51.674C13.3497 51.4183 14.3568 51.1508 15.3639 50.8833C14.8357 50.0459 14.086 49.7239 13.2757 49.9308C12.4201 50.1588 12.092 50.7436 12.3349 51.674Z" fill="white"/>
<path d="M23.9888 47.5539C23.5281 47.896 23.0597 48.2262 22.5989 48.5684C22.1334 47.918 21.5614 47.6744 20.8865 47.8691C19.8871 48.1485 19.5981 48.9357 20.1575 50.1578C20.7127 51.3995 21.5966 51.8112 22.545 51.5313C23.3183 51.3063 23.5767 50.809 23.4057 50.1187C24.0078 50.1233 24.6022 50.1161 25.2063 50.1109C25.4119 51.2174 24.7575 52.234 23.1245 52.7065C20.9897 53.3285 19.2527 52.5524 18.4008 50.6348C17.5469 48.727 18.2825 47.2778 20.3266 46.698C22.1307 46.1901 23.2705 46.6968 24.0083 47.558L23.9888 47.5539Z" fill="white"/>
<path d="M32.1396 46.5166C33.0234 48.3796 32.3697 49.8768 30.3327 50.5194C28.2958 51.1621 26.5428 50.4133 25.6729 48.5328C24.803 46.6522 25.5134 45.1773 27.5364 44.5521C29.5594 43.927 31.2558 44.6535 32.1396 46.5166ZM27.4105 48.0006C27.9797 49.2248 28.7987 49.6535 29.7729 49.3483C30.747 49.0432 30.9908 48.277 30.4196 47.0627C29.8483 45.8483 29.0391 45.4217 28.0768 45.7191C27.1047 46.0144 26.8512 46.7785 27.4105 48.0006Z" fill="white"/>
<path d="M39.1365 43.153C39.7329 44.3932 40.351 45.6277 40.969 46.8622C40.4059 47.06 39.8331 47.2558 39.27 47.4536C38.7327 46.369 38.1954 45.2845 37.6699 44.1922C37.202 43.2143 36.5918 43.0547 35.9422 43.2751C35.2277 43.5124 34.7182 44.1815 35.2648 45.3192C35.7481 46.3208 36.2315 47.3224 36.7266 48.3163C36.1537 48.512 35.5829 48.698 35.0121 48.884C34.0835 46.991 33.1766 45.0924 32.2912 43.1881C32.8069 43.0212 33.3128 42.8521 33.8187 42.6831C33.9936 43.0165 34.1802 43.3421 34.3648 43.6776C34.4119 42.7779 35.0129 42.1588 35.9382 41.8433C37.2256 41.4102 38.4866 41.7789 39.1483 43.1453L39.1365 43.153Z" fill="white"/>
<path d="M44.63 36.0218C45.9324 38.7093 47.278 41.3854 48.6649 44.06C48.1646 44.2507 47.6762 44.4337 47.178 44.6146C46.9815 44.2868 46.7851 43.9591 46.5886 43.6314C46.5818 44.4374 46.0837 45.1498 45.1424 45.4926C43.5042 46.0866 41.951 45.3597 41.0511 43.5239C40.1436 41.6763 40.6243 40.2243 42.227 39.6534C43.1229 39.3317 43.9663 39.4998 44.6298 39.9875C44.0693 38.8674 43.5305 37.7417 42.9798 36.6236C43.5331 36.4237 44.0865 36.2238 44.6321 36.0121L44.63 36.0218ZM45.7333 42.2139C45.6258 41.997 45.5183 41.7801 45.4109 41.5631C44.8791 40.6944 44.1099 40.3682 43.3026 40.6575C42.4165 40.9813 42.1686 41.767 42.7326 42.9186C43.3085 44.0624 44.1436 44.4638 45.0395 44.1421C45.837 43.8507 46.1152 43.1634 45.7333 42.2139Z" fill="white"/>
<path d="M55.8316 40.0868C55.9575 40.4098 56.0736 40.7307 56.1995 41.0537C56.0366 41.2442 55.7996 41.3985 55.508 41.5208C54.7929 41.8092 54.1656 41.7788 53.685 41.248C53.6108 41.9375 52.9964 42.5231 51.982 42.9219C50.8337 43.3742 49.8475 43.1556 49.3595 42.2245C48.9199 41.3548 49.3434 40.4631 50.8125 39.5574C51.249 39.2817 51.6833 39.0157 52.1198 38.74C52.0776 38.6494 52.0236 38.5664 51.9815 38.4757C51.676 37.8899 51.1118 37.6582 50.4657 37.91C49.7743 38.1829 49.3851 38.6219 49.5611 39.3848C49.0394 39.387 48.51 39.3773 47.9883 39.3794C47.7605 38.3296 48.3669 37.3948 49.8264 36.8243C51.4848 36.1835 52.8747 36.4261 53.5853 37.8029C53.9772 38.5603 54.369 39.3177 54.7726 40.0674C54.9264 40.3554 55.1236 40.4379 55.4368 40.31C55.5826 40.2488 55.7187 40.1856 55.8176 40.1043L55.8316 40.0868ZM52.9076 40.2353C52.8058 40.04 52.7117 39.8566 52.6099 39.6613C52.2286 39.918 51.8472 40.1747 51.4561 40.4293C50.98 40.7477 50.7964 41.036 50.9846 41.4028C51.1651 41.7578 51.5229 41.8539 51.9583 41.6802C52.5827 41.434 53.211 40.8309 52.9055 40.2451L52.9076 40.2353Z" fill="white"/>
<path d="M58.4293 33.5028C58.5968 33.9675 58.7525 34.4399 58.92 34.9046C58.7006 34.8787 58.3941 34.9263 58.0927 35.0466C57.3874 35.337 56.9258 36.1184 57.4601 37.1206C57.9636 38.0754 58.4691 39.0203 58.9746 39.9653C58.4269 40.1868 57.887 40.4202 57.3393 40.6417C56.3571 38.809 55.3966 36.9706 54.4478 35.1245C54.9167 34.9374 55.3876 34.7405 55.8564 34.5535C56.0801 34.8972 56.3039 35.2409 56.5256 35.5944C56.4372 34.7069 56.8152 34.0304 57.7333 33.6521C57.9914 33.5431 58.249 33.4852 58.4293 33.5028Z" fill="white"/>
<path d="M65.7801 37.4584C66.028 39.187 65.6482 40.0164 64.3674 40.5633C63.7152 40.8445 63.1692 40.9131 62.6331 40.7896C62.5768 40.379 62.5107 39.9665 62.4544 39.5559C62.8606 39.7134 63.2104 39.6544 63.6282 39.4668C64.0775 39.2755 64.3079 39.0074 64.2322 38.3986C64.2205 38.2121 64.199 38.0236 64.1873 37.8372C63.7148 37.4613 63.2424 37.0855 62.7622 36.6978C61.423 35.5868 60.0858 34.4661 58.7703 33.3397C59.3654 33.0873 59.9605 32.8349 60.5457 32.5804C61.4828 33.5144 62.4395 34.4525 63.3982 35.3809C63.6988 35.6999 64.009 36.021 64.3116 36.3303C64.2203 35.8919 64.1269 35.4633 64.0258 35.0229C63.8038 33.8006 63.5818 32.5783 63.3717 31.3482C63.9116 31.1148 64.4417 30.8794 64.974 30.6341C65.2296 32.9061 65.4971 35.1704 65.7724 37.4465L65.7801 37.4584Z" fill="white"/>
<path d="M75.6094 32.6382C73.3775 33.72 71.1809 32.9899 69.9174 30.6991C68.6538 28.4083 69.3173 26.3817 71.4879 25.3482C73.0099 24.6274 74.4607 24.6786 75.5636 25.6987C75.2002 26.1125 74.8444 26.5381 74.481 26.9519C73.7574 26.2164 73.0818 26.1247 72.2183 26.5349C70.9802 27.1216 70.6588 28.3517 71.5398 29.9382C72.413 31.5128 73.6528 32.0304 74.9167 31.4186C75.8158 30.9851 76.1665 30.2927 75.9201 29.3309C76.4723 29.233 77.0245 29.1351 77.5865 29.0393C77.9338 30.6356 77.1258 31.8957 75.5996 32.6361L75.6094 32.6382Z" fill="white"/>
<path d="M84.8124 26.6713C84.9502 26.9866 85.09 27.2921 85.2298 27.5976C85.0865 27.7922 84.8747 27.9723 84.5985 28.1183C83.9318 28.468 83.3472 28.4773 82.8465 27.9933C82.8232 28.6834 82.281 29.3149 81.3422 29.791C80.2772 30.3325 79.3234 30.2025 78.8076 29.3064C78.3283 28.4794 78.6777 27.5516 80.0165 26.5366C80.418 26.233 80.8117 25.9176 81.2132 25.6141C81.1592 25.5311 81.1171 25.4404 81.063 25.3575C80.7416 24.7989 80.1886 24.6105 79.593 24.9139C78.952 25.2383 78.6174 25.7093 78.8367 26.4609C78.3381 26.4986 77.8395 26.5363 77.341 26.574C77.056 25.553 77.5728 24.5584 78.9217 23.8828C80.4561 23.1032 81.7863 23.2413 82.5526 24.5481C82.9723 25.2705 83.392 25.9928 83.8235 26.7075C83.9912 26.9781 84.1806 27.0488 84.4687 26.895C84.5949 26.8297 84.7253 26.7449 84.8165 26.6517L84.8124 26.6713ZM82.0525 27.0589C81.9486 26.8734 81.8329 26.6956 81.729 26.5101C81.3827 26.7947 81.0343 27.089 80.688 27.3735C80.2546 27.7316 80.1003 28.0261 80.3024 28.3754C80.4968 28.7129 80.8413 28.7755 81.2417 28.574C81.8254 28.2783 82.374 27.6175 82.0525 27.0589Z" fill="white"/>
<path d="M86.8381 19.8921C87.0195 20.3393 87.2087 20.7984 87.3999 21.2476C87.1883 21.2336 86.907 21.307 86.6189 21.4607C85.9718 21.8145 85.5864 22.6223 86.1506 23.5797C86.686 24.4799 87.2292 25.3919 87.7841 26.2962C87.2869 26.5693 86.782 26.8305 86.275 27.1015C85.2232 25.3563 84.1832 23.6033 83.1649 21.8447C83.6008 21.62 84.0387 21.3855 84.4648 21.1587C84.6927 21.4829 84.9304 21.8091 85.1681 22.1353C85.0267 21.257 85.3383 20.5563 86.1906 20.1028C86.4332 19.9701 86.6733 19.8982 86.8458 19.904L86.8381 19.8921Z" fill="white"/>
<path d="M94.4995 19.8165C93.2443 20.5324 91.9793 21.2462 90.7045 21.958C91.3091 22.6275 92.0064 22.7136 92.7267 22.3037C93.3523 21.9555 93.6143 21.4896 93.5137 20.9982C94.001 20.9172 94.4904 20.8265 94.9679 20.7434C95.1411 21.7613 94.5996 22.6791 93.3799 23.3718C91.592 24.384 89.9494 23.9345 88.9208 22.2249C87.8921 20.5152 88.2894 18.974 90.014 18.0201C91.6814 17.0949 93.1591 17.5503 94.2115 19.2446C94.3041 19.3868 94.446 19.6826 94.5071 19.8284L94.4995 19.8165ZM90.0878 20.9589C90.9226 20.4914 91.7552 20.0337 92.5899 19.5662C91.9936 18.8575 91.3031 18.6912 90.6302 19.0702C89.9237 19.4626 89.7363 20.1077 90.0956 20.9707L90.0878 20.9589Z" fill="white"/>
</svg>
