<svg width="34" height="39" viewBox="0 0 34 39" fill="none" xmlns="http://www.w3.org/2000/svg">
<g filter="url(#filter0_b_1062_4289)">
<path d="M12.849 36.8049C14.985 38.1608 17.6863 38.2586 19.9147 37.0608L29.7682 31.7645C31.9597 30.5866 33.3613 28.3338 33.4496 25.8473L33.8576 14.3603C33.9458 11.8773 32.7112 9.5336 30.6136 8.20202L21.151 2.19513C19.015 0.839239 16.3137 0.741389 14.0853 1.9392L4.23187 7.2355C2.04032 8.41348 0.63876 10.6662 0.550434 13.1527L0.142395 24.6397C0.0541916 27.1227 1.2888 29.4664 3.38643 30.798L12.849 36.8049Z" fill="#7BDEFF" fill-opacity="0.4"/>
</g>
<path d="M21.119 21.4837C22.0675 21.4441 22.8579 21.2663 23.6087 20.9304C23.7668 20.8612 23.915 20.8217 24.0533 20.96C24.1818 21.0885 24.1422 21.2367 24.0731 21.3849C23.3025 23.0941 22.0773 24.3587 20.3582 25.0898C16.4458 26.7595 12.0887 24.8231 10.6858 20.802C9.51005 17.423 11.1501 13.5501 14.4105 12.0286C14.5587 11.9594 14.697 11.91 14.8353 12.0286C14.9835 12.157 14.9539 12.3151 14.8847 12.4732C14.4401 13.5798 14.282 14.7357 14.4895 15.9114C14.944 18.49 16.4161 20.2289 18.8664 21.128C19.6271 21.4046 20.4175 21.4935 21.0992 21.4738L21.119 21.4837ZM14.0548 12.9474C11.8417 14.2615 10.3993 17.0476 11.1205 20.0511C11.822 22.9755 14.3216 24.9021 17.088 25.0602C20.2199 25.238 22.4231 23.262 23.1444 21.78C20.457 22.5013 18.0167 22.0172 16.0012 20.061C13.9758 18.1047 13.4225 15.6842 14.0647 12.9474H14.0548Z" fill="white" stroke="white" stroke-width="0.715662"/>
<path d="M17.9763 14.4631C17.5712 14.4829 17.2353 14.5026 16.8994 14.5026C16.7611 14.5026 16.5832 14.5224 16.5832 14.2952C16.5832 14.0877 16.7314 14.0383 16.8895 14.0284C17.3934 14.0087 17.9071 13.979 18.411 13.979C18.5395 13.979 18.7568 14.0482 18.7766 14.1272C18.8062 14.2556 18.7469 14.4434 18.6679 14.5619C18.332 14.9966 17.9664 15.4215 17.6107 15.8463C17.5613 15.9056 17.5218 15.9649 17.4428 16.0637C17.8478 16.0439 18.2134 16.034 18.579 16.0241C18.905 16.0143 19.0433 16.0834 19.0532 16.2613C19.0532 16.4391 18.9248 16.5181 18.5987 16.5379C18.0751 16.5577 17.5514 16.5774 17.0278 16.5972C16.8598 16.5972 16.6721 16.6169 16.5832 16.4292C16.5042 16.2514 16.6128 16.1229 16.7215 15.9945C17.0772 15.5796 17.423 15.1547 17.7688 14.7398C17.8281 14.6706 17.8775 14.6014 17.9664 14.473L17.9763 14.4631Z" fill="white" stroke="white" stroke-width="0.477108"/>
<path d="M23.9133 14.0975C23.528 14.1074 23.2019 14.1272 22.8858 14.137C22.787 14.137 22.6783 14.137 22.5993 14.0778C22.5499 14.0481 22.5005 13.9197 22.5301 13.8703C22.5597 13.7913 22.6585 13.7023 22.7277 13.6924C23.0043 13.6628 23.281 13.6529 23.5576 13.643C23.854 13.6332 24.1405 13.6134 24.4369 13.6233C24.5456 13.6233 24.7136 13.6925 24.7531 13.7814C24.7926 13.8703 24.7531 14.0382 24.674 14.1272C24.3282 14.5717 23.9627 14.9966 23.607 15.4313C23.5477 15.5005 23.4884 15.5696 23.4094 15.6684C23.4884 15.6684 23.5477 15.6882 23.5971 15.6882C23.9429 15.6783 24.2887 15.6585 24.6345 15.6487C24.8124 15.6487 25.0001 15.6783 25.0001 15.9056C25.0001 16.1229 24.8321 16.1525 24.6642 16.1525C24.0911 16.1723 23.5082 16.1921 22.9352 16.2217C22.7771 16.2217 22.619 16.2217 22.54 16.0537C22.4609 15.8858 22.5597 15.7573 22.6585 15.6388C23.0142 15.2041 23.3798 14.7792 23.7354 14.3445C23.7848 14.2852 23.8343 14.2161 23.9232 14.0975H23.9133Z" fill="white" stroke="white" stroke-width="0.477108"/>
<path d="M20.5366 17.5496C20.8627 17.5397 21.1393 17.5298 21.4159 17.5199C21.4752 17.5199 21.5542 17.4903 21.5938 17.5199C21.6728 17.5693 21.7321 17.6583 21.8013 17.7274C21.7321 17.7966 21.6629 17.9151 21.5938 17.925C21.0998 17.9645 20.5959 17.9744 20.092 17.9843C20.013 17.9843 19.8845 17.925 19.8747 17.8657C19.845 17.7768 19.8747 17.6484 19.9241 17.5694C20.2007 17.2038 20.4872 16.858 20.7737 16.5023C20.8231 16.443 20.8627 16.3838 20.9318 16.285C20.6749 16.2948 20.4576 16.3047 20.2501 16.3047C20.1612 16.3047 20.0624 16.3047 19.9735 16.285C19.9142 16.2652 19.8253 16.1862 19.8351 16.1467C19.8351 16.0775 19.9043 16.0083 19.9537 15.949C19.9735 15.9293 20.0229 15.9194 20.0624 15.9194C20.4872 15.8997 20.9121 15.8799 21.327 15.8799C21.4159 15.8799 21.574 15.9293 21.5938 15.9985C21.6234 16.0874 21.5938 16.2257 21.5246 16.3047C21.248 16.6604 20.9615 16.9963 20.6749 17.3421C20.6354 17.3915 20.5959 17.4508 20.5169 17.5397L20.5366 17.5496Z" fill="white" stroke="white" stroke-width="0.477108"/>
<defs>
<filter id="filter0_b_1062_4289" x="-2.86203" y="-1.89502" width="39.7241" height="42.79" filterUnits="userSpaceOnUse" color-interpolation-filters="sRGB">
<feFlood flood-opacity="0" result="BackgroundImageFix"/>
<feGaussianBlur in="BackgroundImageFix" stdDeviation="1.5"/>
<feComposite in2="SourceAlpha" operator="in" result="effect1_backgroundBlur_1062_4289"/>
<feBlend mode="normal" in="SourceGraphic" in2="effect1_backgroundBlur_1062_4289" result="shape"/>
</filter>
</defs>
</svg>
