<svg width="34" height="39" viewBox="0 0 34 39" fill="none" xmlns="http://www.w3.org/2000/svg">
<g filter="url(#filter0_b_1062_4315)">
<path d="M12.849 36.8049C14.985 38.1608 17.6863 38.2586 19.9147 37.0608L29.7682 31.7645C31.9597 30.5866 33.3613 28.3338 33.4496 25.8473L33.8576 14.3603C33.9458 11.8773 32.7112 9.5336 30.6136 8.20202L21.151 2.19513C19.015 0.839239 16.3137 0.741389 14.0853 1.9392L4.23187 7.2355C2.04032 8.41348 0.63876 10.6662 0.550434 13.1527L0.142395 24.6397C0.0541916 27.1227 1.2888 29.4664 3.38643 30.798L12.849 36.8049Z" fill="#7BDEFF" fill-opacity="0.4"/>
</g>
<path d="M11.0523 18.6294C11.0523 17.803 11.0139 17.0246 11.0619 16.2462C11.0908 15.7849 11.2541 15.3237 11.3502 14.8624C11.4175 14.5645 11.6001 14.4972 11.8884 14.5357C12.7437 14.6702 13.5509 14.9393 14.3197 15.3429C14.4254 15.3909 14.5215 15.4486 14.5791 15.4678C14.9635 14.7951 15.3095 14.1225 15.7419 13.4978C16.0686 13.0366 16.5011 12.6522 16.8951 12.2389C17.0393 12.0852 17.1642 12.0852 17.3371 12.2197C18.3366 12.9693 19.1246 13.9014 19.6819 15.0161C19.73 15.1122 19.7781 15.1987 19.8069 15.2564C20.4507 14.9585 21.0754 14.651 21.7096 14.3819C21.9787 14.2666 22.2766 14.2089 22.5649 14.1321C22.8051 14.0648 22.9685 14.1417 23.0646 14.3915C23.4874 15.4294 23.6796 16.4961 23.6124 17.6204C23.6028 17.7838 23.5931 17.9471 23.5835 18.1489C23.8718 18.1778 24.1601 18.1874 24.4388 18.2354C24.9289 18.3315 25.4094 18.4565 25.8995 18.5814C26.0917 18.6294 26.1686 18.764 26.159 18.9946C25.986 21.5412 23.9295 23.9821 21.4406 24.6067C20.3835 24.8758 19.3264 24.8758 18.2597 24.6355C17.7984 24.5298 17.3275 24.5586 16.8663 24.6932C12.9359 25.8944 9.43787 23.3959 8.64986 19.8595C8.54415 19.3982 8.58262 19.2925 9.03428 19.1387C9.57243 18.9562 10.1298 18.8312 10.6775 18.6871C10.8121 18.6486 10.9658 18.639 11.0523 18.6198V18.6294ZM17.5678 24.0493C21.0177 20.9934 20.7775 15.439 17.145 12.6906C13.7623 15.66 13.8584 21.2049 17.5678 24.0493ZM22.6129 14.6318C21.7096 14.8336 20.8832 15.1988 20.124 15.7273C20.0759 15.7561 20.0856 15.8907 20.1048 15.9675C20.2201 16.4672 20.3931 16.9573 20.4507 17.457C20.7102 19.6673 20.1913 21.6757 18.8075 23.4343C18.7114 23.5592 18.6152 23.6746 18.4999 23.8379C22.3246 22.4445 24.0832 18.1585 22.6129 14.6318ZM11.8307 15.045C10.5815 19.0234 13.0512 22.9826 16.6357 23.9052C16.4915 23.7514 16.3666 23.6265 16.2512 23.492C15.0308 22.1178 14.3389 20.5225 14.2236 18.6775C14.1659 17.8318 14.2524 17.0054 14.4542 16.1789C14.4734 16.1117 14.4542 15.9771 14.3965 15.9483C13.6085 15.487 12.7629 15.1891 11.8403 15.0546L11.8307 15.045ZM16.2609 24.3472C13.6854 23.4055 12.0229 21.6949 11.2637 19.1387C10.591 19.1195 9.4571 19.4174 9.11114 19.6961C9.54359 21.4451 10.4373 22.8769 12.0517 23.7707C13.3491 24.4914 14.7329 24.6932 16.2609 24.3472ZM23.497 18.6583C22.9205 21.2817 21.4021 23.1172 18.9612 24.2319C19.0285 24.2607 19.0477 24.28 19.0765 24.28C20.566 24.4433 21.9403 24.1358 23.1703 23.2613C24.5637 22.2811 25.3325 20.8973 25.64 19.2445C25.6689 19.1099 25.6689 18.9754 25.4863 18.9273C24.8424 18.7447 24.189 18.6102 23.497 18.6486V18.6583Z" fill="white" stroke="white" stroke-width="0.81211"/>
<defs>
<filter id="filter0_b_1062_4315" x="-2.86203" y="-1.89502" width="39.7241" height="42.79" filterUnits="userSpaceOnUse" color-interpolation-filters="sRGB">
<feFlood flood-opacity="0" result="BackgroundImageFix"/>
<feGaussianBlur in="BackgroundImageFix" stdDeviation="1.5"/>
<feComposite in2="SourceAlpha" operator="in" result="effect1_backgroundBlur_1062_4315"/>
<feBlend mode="normal" in="SourceGraphic" in2="effect1_backgroundBlur_1062_4315" result="shape"/>
</filter>
</defs>
</svg>
