<svg width="77" height="49" viewBox="0 0 77 49" fill="none" xmlns="http://www.w3.org/2000/svg">
<path d="M8.38727 12.0524C7.56185 11.6677 6.74532 11.272 5.92879 10.8763C4.92165 12.8441 3.88362 14.8052 2.83459 16.7573C2.31556 16.5109 1.80541 16.2535 1.28532 15.9972C2.34429 14.044 3.38338 12.0929 4.40152 10.134C3.58499 9.73827 2.77734 9.33158 1.95975 8.92594C2.16913 8.53153 2.37851 8.1371 2.57795 7.74375C4.69239 8.80566 6.82354 9.83563 8.98346 10.8525C8.78508 11.2558 8.58565 11.6491 8.37732 12.0535L8.38727 12.0524Z" fill="white"/>
<path d="M11.6933 18.2553C10.341 17.6452 9.00861 17.0329 7.67516 16.4107C7.43392 17.2611 7.73933 17.8621 8.50084 18.2134C9.15656 18.5156 9.71553 18.4762 10.1003 18.1234C10.4488 18.4684 10.8062 18.8024 11.1548 19.1474C10.3444 19.8472 9.22538 19.9162 7.93489 19.3196C6.04157 18.4453 5.53499 16.9003 6.444 15.1441C7.36295 13.3868 8.89272 12.8316 10.7012 13.6646C12.4568 14.4731 12.9229 15.9219 12.0359 17.6959C11.9612 17.8446 11.7899 18.1244 11.6943 18.2653L11.6933 18.2553ZM8.18782 15.3706C9.06613 15.7798 9.94444 16.189 10.8217 16.5883C11.1116 15.7227 10.8506 15.0667 10.132 14.741C9.39148 14.3975 8.73014 14.6088 8.17787 15.3716L8.18782 15.3706Z" fill="white"/>
<path d="M18.5369 17.266C18.259 17.6778 17.991 18.0885 17.7131 18.5003C17.5946 18.3319 17.3646 18.1553 17.0692 18.0258C16.3737 17.7279 15.4574 17.906 14.9704 18.9032C14.5078 19.8475 14.0343 20.783 13.5707 21.7174C13.0428 21.482 12.5149 21.2466 11.988 21.0212C12.9017 19.2142 13.8054 17.4082 14.6881 15.5945C15.1422 15.7975 15.5952 15.9906 16.0493 16.1936C15.9074 16.5607 15.7765 16.9367 15.6346 17.3038C16.3022 16.6795 17.0882 16.5053 17.9842 16.8925C18.2367 16.9963 18.4436 17.1452 18.5479 17.2749L18.5369 17.266Z" fill="white"/>
<path d="M20.8452 24.3931C20.3267 24.5288 19.6435 24.4407 19.0119 24.1761C17.8535 23.6861 17.2772 22.9028 17.8635 21.7039C18.3171 20.7706 18.7697 19.8273 19.2234 18.894C18.8761 18.7499 18.5179 18.597 18.1696 18.4431C18.3513 18.0717 18.523 17.7015 18.7047 17.3301C19.0519 17.4741 19.4002 17.6281 19.7574 17.771C19.9536 17.3479 20.1509 16.9346 20.3472 16.5114C20.9388 16.5892 21.5314 16.6769 22.123 16.7546C21.8609 17.3156 21.5989 17.8765 21.3369 18.4374C21.9575 18.6931 22.5891 18.9576 23.2196 19.2122C23.0479 19.5825 22.8772 19.9628 22.6955 20.3341C22.065 20.0795 21.4334 19.815 20.8128 19.5593C20.4114 20.4166 20.0001 21.2751 19.5788 22.1346C19.3235 22.6646 19.5218 23.0156 20.0167 23.2243C20.4058 23.3839 20.7283 23.3898 21.0689 23.2831C20.9877 23.6538 20.9154 24.0135 20.8342 24.3842L20.8452 24.3931Z" fill="white"/>
<path d="M23.3181 25.7995C22.7724 25.5861 22.2356 25.3617 21.6999 25.1473C22.5805 23.3137 23.4413 21.4821 24.2811 19.6428C24.8168 19.8572 25.3526 20.0716 25.8883 20.2861C25.0485 22.1254 24.1998 23.9758 23.3192 25.8094L23.3181 25.7995ZM24.8264 17.9655C25.0707 17.4266 25.5175 17.2784 26.1889 17.5388C26.8503 17.8001 27.055 18.2107 26.8107 18.7497C26.5664 19.2886 26.1185 19.4268 25.4571 19.1654C24.7957 18.9041 24.5921 18.5034 24.8364 17.9645L24.8264 17.9655Z" fill="white"/>
<path d="M31.3809 27.7562C31.2007 28.047 31.0216 28.3477 30.8414 28.6384C30.5828 28.6659 30.286 28.6171 29.9828 28.5086C29.2606 28.2437 28.8738 27.8223 28.974 27.1579C28.3636 27.5649 27.4691 27.5697 26.4725 27.1832C25.3393 26.7408 24.8557 25.9777 25.2795 25.0476C25.6799 24.1803 26.6818 23.8623 28.3964 24.1924C28.9095 24.2886 29.4226 24.3848 29.9456 24.4799C29.9869 24.395 30.027 24.3002 30.0683 24.2154C30.3271 23.6246 30.1318 23.1125 29.4923 22.8689C28.8011 22.6107 28.2034 22.6643 27.707 23.2904C27.3496 22.9564 27.0021 22.6213 26.6536 22.2763C27.3277 21.4301 28.4773 21.1769 29.9237 21.7267C31.5686 22.3459 32.3248 23.4017 31.7189 24.7937C31.3775 25.5542 31.0461 26.3136 30.6949 27.0751C30.5644 27.3605 30.6342 27.5442 30.9484 27.6615C31.0951 27.7163 31.2406 27.7611 31.382 27.7662L31.3809 27.7562ZM29.2708 25.9799C29.3611 25.7892 29.4414 25.5996 29.5307 25.399C29.0606 25.3285 28.6004 25.2568 28.1292 25.1763C27.5565 25.0865 27.2017 25.1545 27.0299 25.5248C26.8671 25.884 27.0282 26.1686 27.4581 26.334C28.0766 26.5697 29.0009 26.5617 29.2608 25.9809L29.2708 25.9799Z" fill="white"/>
<path d="M38.4631 24.9469C38.2071 25.3765 37.9502 25.7961 37.6843 26.2267C37.5569 26.0693 37.3081 25.9047 36.9939 25.7874C36.2628 25.5334 35.333 25.7733 34.8878 26.7862C34.4683 27.7561 34.0377 28.7171 33.6082 29.6881C33.0536 29.4858 32.5001 29.2933 31.9455 29.0909C32.7832 27.2317 33.6 25.3646 34.4067 23.4986C34.8775 23.6697 35.3583 23.8397 35.829 24.0108C35.7081 24.3857 35.5882 24.7706 35.4672 25.1455C36.1107 24.4836 36.9123 24.2675 37.8518 24.5897C38.1131 24.6825 38.3378 24.8095 38.4521 24.9381L38.4631 24.9469Z" fill="white"/>
<path d="M40.3654 32.417C39.0994 33.7487 38.1461 34.0514 36.8097 33.5904C36.1316 33.361 35.6967 33.0553 35.4381 32.6103C35.7366 32.2969 36.035 31.9835 36.3335 31.6701C36.4842 32.0462 36.7749 32.2264 37.2127 32.3708C37.6824 32.532 38.0614 32.5016 38.5151 32.0409C38.6615 31.9047 38.7979 31.7695 38.9443 31.6332C38.9247 31.0721 38.914 30.5 38.8945 29.9389C38.872 28.3121 38.8494 26.6854 38.8269 25.0586C39.4433 25.2745 40.0585 25.4804 40.6738 25.6864C40.5865 26.9427 40.4991 28.1991 40.4118 29.4554C40.3657 29.8726 40.3186 30.2799 40.2626 30.6982C40.5569 30.345 40.85 29.9819 41.1333 29.6199C41.9737 28.6352 42.8041 27.6517 43.6346 26.6682C44.197 26.8496 44.7703 27.0399 45.3427 27.2203C43.7082 28.9633 42.0528 30.6985 40.3654 32.417Z" fill="white"/>
<path d="M51.2492 35.5543C48.7678 34.8232 47.8477 32.8898 48.8072 30.4745C49.7666 28.0593 51.8329 27.0647 54.2295 27.7546C55.9103 28.2392 56.9317 29.2366 56.9153 30.6865C56.3187 30.7501 55.721 30.8037 55.1134 30.8584C55.1874 29.8549 54.7612 29.3472 53.8171 29.0757C52.4473 28.6787 51.2407 29.3403 50.5849 31.0192C49.9281 32.6882 50.3745 33.8575 51.7762 34.2713C52.7732 34.5673 53.6015 34.3181 54.217 33.4882C54.6916 33.7896 55.1751 34.08 55.6597 34.3804C54.5858 35.7217 52.9531 36.0667 51.2602 35.5632L51.2492 35.5543Z" fill="white"/>
<path d="M62.8502 37.4957C62.692 37.8042 62.5338 38.1127 62.3657 38.4223C62.0894 38.4718 61.7857 38.4539 61.4648 38.3675C60.6893 38.1685 60.2559 37.7823 60.3053 37.1133C59.7113 37.5788 58.7855 37.6675 57.7079 37.37C56.4957 37.0366 55.9269 36.3228 56.2968 35.3582C56.6432 34.4564 57.6554 34.0468 59.4625 34.2062C60.0012 34.2594 60.5487 34.3017 61.0864 34.3449C61.1166 34.2512 61.1568 34.1564 61.187 34.0627C61.4129 33.4452 61.1589 32.9494 60.4761 32.7707C59.7415 32.5775 59.1193 32.684 58.658 33.3567C58.264 33.0568 57.8699 32.7568 57.4749 32.4469C58.1029 31.5453 59.2806 31.1784 60.8226 31.5873C62.582 32.0535 63.4599 33.0259 62.94 34.4692C62.6526 35.2641 62.3642 36.0491 62.0768 36.844C61.9683 37.1472 62.057 37.3188 62.3879 37.4042C62.5423 37.438 62.6968 37.4718 62.8371 37.467L62.8502 37.4957ZM60.5215 35.9337C60.6009 35.7342 60.6702 35.5357 60.7396 35.3372C60.2538 35.3086 59.7581 35.281 59.2723 35.2523C58.6651 35.2164 58.3046 35.3252 58.1637 35.7023C58.0218 36.0694 58.2216 36.3397 58.6772 36.4621C59.3401 36.6429 60.2957 36.5511 60.5215 35.9337Z" fill="white"/>
<path d="M69.9521 34.0213C69.7182 34.4686 69.4853 34.9259 69.2514 35.3732C69.1052 35.2279 68.8385 35.0853 68.4988 35.0109C67.7254 34.8318 66.7743 35.1545 66.404 36.2096C66.0483 37.213 65.6926 38.2163 65.327 39.2207C64.738 39.0723 64.139 38.925 63.5499 38.7765C64.2588 36.8405 64.9477 34.9066 65.6267 32.9738C66.133 33.1009 66.6393 33.2279 67.1545 33.344C67.0655 33.7356 66.9655 34.1184 66.8765 34.51C67.4938 33.7905 68.2968 33.4938 69.3074 33.728C69.5864 33.7988 69.8289 33.9037 69.962 34.0203L69.9521 34.0213Z" fill="white"/>
<path d="M75.7732 39.1016C74.2198 38.7744 72.6753 38.4361 71.1396 38.0869C71.0329 38.9732 71.4712 39.4997 72.3471 39.698C73.1095 39.8682 73.6966 39.7151 74.0331 39.287C74.4736 39.5518 74.9042 39.8177 75.3448 40.0825C74.611 40.9351 73.4148 41.2235 71.931 40.8888C69.7466 40.3975 68.9225 38.9869 69.5837 37.0761C70.245 35.1653 71.7937 34.3164 73.8843 34.7774C75.9032 35.226 76.6681 36.5524 76.0289 38.481C75.9763 38.6475 75.8479 38.9528 75.7633 39.1026L75.7732 39.1016ZM71.5124 36.9611C72.5219 37.1854 73.5324 37.4196 74.5507 37.6329C74.695 36.7224 74.3001 36.131 73.487 35.9561C72.632 35.7657 71.9546 36.1094 71.5124 36.9611Z" fill="white"/>
</svg>
