<svg width="71" height="9" viewBox="0 0 71 9" fill="none" xmlns="http://www.w3.org/2000/svg">
<path d="M4.28 7.50999C3.61 7.44999 2.95 7.39 2.28 7.33C1.5 4.89 0.74 2.44 0 0C0.59 0.06 1.18 0.119993 1.78 0.179993C2.2 1.72999 2.63 3.27999 3.06 4.81999C3.17 5.29999 3.28999 5.77 3.39999 6.25C3.58999 5.8 3.79001 5.36 3.98001 4.91C4.69001 3.46 5.39002 2.01 6.08002 0.559998C6.66002 0.609998 7.23 0.659997 7.81 0.699997C6.65 2.98 5.47002 5.24999 4.27002 7.50999H4.28Z" fill="white"/>
<path d="M8.65994 0.929675C8.69994 0.409675 9.05994 0.159684 9.74994 0.219684C10.4399 0.269684 10.7699 0.559679 10.7299 1.08968C10.6899 1.60968 10.33 1.84969 9.63995 1.79969C8.93995 1.74969 8.61994 1.46969 8.65994 0.939685V0.929675ZM10.0299 7.96968C9.45994 7.92968 8.88996 7.88968 8.32996 7.83968C8.45996 6.05968 8.59996 4.26969 8.73996 2.48969C9.29996 2.52969 9.85995 2.56968 10.42 2.60968C10.29 4.38968 10.1699 6.17967 10.0399 7.95967L10.0299 7.96968Z" fill="white"/>
<path d="M16.32 2.99828C16.23 3.41828 16.13 3.84828 16.04 4.26828C15.87 4.15828 15.6 4.07827 15.28 4.06827C14.54 4.02827 13.78 4.44827 13.72 5.42827C13.66 6.34827 13.61 7.27827 13.55 8.19827C12.98 8.16827 12.41 8.12827 11.85 8.08827C11.97 6.30827 12.09 4.51828 12.2 2.73828C12.69 2.76828 13.17 2.79828 13.66 2.82828C13.67 3.17828 13.69 3.52828 13.71 3.88828C14.08 3.16828 14.72 2.78828 15.68 2.84828C15.95 2.86828 16.19 2.91828 16.34 2.99828H16.32Z" fill="white"/>
<path d="M21.1401 8.26172C20.7301 8.52172 20.0801 8.66173 19.4201 8.63173C18.1901 8.57173 17.3601 8.09173 17.4201 6.91173C17.4701 5.99173 17.5101 5.07173 17.5601 4.16173C17.1901 4.14173 16.8101 4.12173 16.4401 4.10173C16.4601 3.74173 16.4801 3.37172 16.5001 3.01172C16.8701 3.03172 17.2401 3.05172 17.6101 3.07172C17.6301 2.66172 17.6501 2.25172 17.6701 1.84172C18.2401 1.73172 18.8001 1.62172 19.3601 1.51172C19.3301 2.06172 19.3101 2.60172 19.2801 3.15172C19.9401 3.18172 20.6001 3.21173 21.2701 3.24173C21.2601 3.60173 21.2401 3.97173 21.2301 4.33173C20.5701 4.30173 19.9001 4.27173 19.2401 4.24173C19.2001 5.08173 19.1601 5.92172 19.1201 6.76172C19.1001 7.27172 19.4101 7.51172 19.9401 7.54172C20.3501 7.56172 20.6401 7.46172 20.9101 7.28172C20.9801 7.61172 21.0601 7.94173 21.1301 8.27173L21.1401 8.26172Z" fill="white"/>
<path d="M28.2201 3.43953C28.1801 5.22953 28.1501 7.00953 28.1101 8.79953C27.6001 8.78953 27.1001 8.77952 26.5901 8.75952C26.5801 8.44952 26.5601 8.13952 26.5501 7.83952C26.1201 8.53952 25.3401 8.83952 24.3401 8.80952C23.0801 8.76952 22.1701 8.18952 22.2201 6.81952C22.2601 5.63952 22.3101 4.44953 22.3501 3.26953C22.9101 3.28953 23.4701 3.30953 24.0301 3.32953C24.0001 4.38953 23.9601 5.44953 23.9301 6.49953C23.9001 7.36953 24.3001 7.64953 24.9701 7.66953C25.7801 7.68953 26.4301 7.26953 26.4601 6.26953C26.4801 5.30953 26.5101 4.34952 26.5301 3.39952C27.0901 3.40952 27.6501 3.42953 28.2101 3.43953H28.2201Z" fill="white"/>
<path d="M36.02 7.95028C35.98 8.25028 35.94 8.54028 35.9 8.84028C35.67 8.94028 35.4 8.99029 35.09 8.99029C34.34 8.99029 33.83 8.76028 33.66 8.18028C33.28 8.70028 32.5 8.98029 31.45 8.97029C30.27 8.96029 29.53 8.47028 29.54 7.57028C29.55 6.73028 30.32 6.16029 31.98 5.91029C32.47 5.83029 32.97 5.75028 33.46 5.68028C33.46 5.59028 33.46 5.51028 33.46 5.42028C33.46 4.85028 33.08 4.48028 32.42 4.48028C31.71 4.48028 31.19 4.70029 30.99 5.38029C30.54 5.21029 30.1 5.04028 29.65 4.87028C29.92 3.96028 30.85 3.40029 32.35 3.41029C34.05 3.43029 35.13 4.07028 35.13 5.40028C35.13 6.13028 35.13 6.87029 35.13 7.60029C35.13 7.88029 35.27 8.01028 35.59 8.01028C35.74 8.01028 35.89 8.00029 36.01 7.97029L36.02 7.95028ZM33.45 7.13029C33.45 6.94029 33.45 6.76028 33.45 6.57028C33.01 6.65028 32.57 6.74028 32.12 6.82028C31.57 6.92028 31.29 7.09029 31.28 7.44029C31.28 7.78029 31.53 7.97029 31.98 7.97029C32.62 7.97029 33.44 7.69028 33.44 7.12028L33.45 7.13029Z" fill="white"/>
<path d="M38.7301 7.15845C38.7301 7.65845 38.8901 7.84844 39.3401 7.83844C39.6201 7.83844 39.8001 7.79844 40.0701 7.70844C40.0201 8.04844 39.9801 8.38844 39.9301 8.72844C39.6601 8.86844 39.1901 8.95844 38.7701 8.96844C37.5601 8.96844 37.0201 8.49845 37.0201 7.37845C37.0201 5.30845 37.0001 3.22845 37.0001 1.15845C37.5601 1.15845 38.1101 1.15844 38.6701 1.14844C38.6901 3.14844 38.7001 5.14845 38.7201 7.15845H38.7301Z" fill="white"/>
<path d="M48.2999 8.77099C45.8599 8.85099 44.2999 7.51099 44.2499 5.24099C44.1999 2.97099 45.6699 1.56098 48.0199 1.48098C49.6699 1.42098 50.9199 1.97098 51.4299 3.18098C50.9299 3.39098 50.4199 3.60098 49.9199 3.81098C49.6199 2.96098 49.0699 2.65098 48.1299 2.68098C46.7899 2.73098 45.9699 3.61098 46.0099 5.18098C46.0499 6.75098 46.8899 7.59098 48.2599 7.54098C49.2399 7.51098 49.8699 7.07099 50.0999 6.22099C50.6299 6.33099 51.1599 6.45098 51.6899 6.56098C51.2599 7.96098 49.9599 8.70098 48.2899 8.76098L48.2999 8.77099Z" fill="white"/>
<path d="M59.1199 7.19026C59.0999 7.49026 59.08 7.79026 59.05 8.09026C58.83 8.20026 58.5599 8.27026 58.2499 8.29026C57.4999 8.34026 56.98 8.14025 56.77 7.57025C56.43 8.12025 55.66 8.44026 54.61 8.50026C53.43 8.56026 52.6599 8.12026 52.6199 7.22026C52.5799 6.38026 53.31 5.76027 54.95 5.41027C55.44 5.30027 55.93 5.19026 56.42 5.08026C56.42 4.99026 56.4099 4.91025 56.4099 4.82025C56.3799 4.25025 55.9799 3.91026 55.3099 3.95026C54.5999 3.99026 54.0899 4.25026 53.9399 4.94026C53.4799 4.80026 53.0299 4.66026 52.5699 4.51026C52.7899 3.59026 53.68 2.97027 55.17 2.88027C56.87 2.79027 57.9899 3.36026 58.0699 4.69026C58.1199 5.42026 58.16 6.15027 58.21 6.88027C58.23 7.16027 58.37 7.28026 58.7 7.26026C58.85 7.26026 58.9999 7.23026 59.1199 7.19026ZM56.5099 6.53026C56.4999 6.34026 56.4899 6.16026 56.4799 5.97026C56.0399 6.08026 55.61 6.19027 55.17 6.30027C54.63 6.44027 54.3499 6.62026 54.3699 6.98026C54.3899 7.32026 54.6599 7.49026 55.0999 7.47026C55.7499 7.44026 56.5399 7.10026 56.4999 6.53026H56.5099Z" fill="white"/>
<path d="M63.99 2.40939C63.95 2.83939 63.92 3.27938 63.88 3.70938C63.7 3.62938 63.41 3.58939 63.09 3.60939C62.35 3.66939 61.65 4.18939 61.72 5.15939C61.79 6.07939 61.85 7.00938 61.92 7.92938C61.35 7.96938 60.78 8.00939 60.22 8.04939C60.1 6.26939 59.98 4.47938 59.86 2.69938C60.35 2.66938 60.83 2.62939 61.32 2.59939C61.38 2.94939 61.44 3.28938 61.51 3.63938C61.78 2.87938 62.37 2.41938 63.32 2.33938C63.59 2.31938 63.84 2.33939 63.99 2.40939Z" fill="white"/>
<path d="M70.8901 5.02959C69.4301 5.16959 67.9801 5.30958 66.5201 5.42958C66.7601 6.17958 67.3401 6.49958 68.1701 6.42958C68.8901 6.36958 69.3401 6.08959 69.4701 5.63959C69.9501 5.73959 70.4201 5.83959 70.9001 5.93959C70.5901 6.82959 69.6801 7.38958 68.2701 7.50958C66.2101 7.69958 64.9501 6.75958 64.8101 5.00958C64.6701 3.25958 65.7001 2.13959 67.6701 1.96959C69.5801 1.79959 70.7101 2.69958 70.8901 4.44958C70.9001 4.59958 70.9101 4.88959 70.8901 5.02959ZM66.4201 4.40959C67.3801 4.32959 68.3301 4.23958 69.2901 4.14958C69.0801 3.35958 68.5201 2.97959 67.7501 3.04959C66.9401 3.11959 66.4901 3.57959 66.4201 4.40959Z" fill="white"/>
</svg>
